SplineFontDB: 3.2
FontName: Biohackers
FullName: Biohackers
FamilyName: Biohackers
Weight: Book
Copyright: Copyright (c) 2022, zmr
Version: 002.000
ItalicAngle: 0
UnderlinePosition: -99.8535
UnderlineWidth: 49.8047
Ascent: 800
Descent: 200
InvalidEm: 0
sfntRevision: 0x00010000
LayerCount: 2
Layer: 0 1 "Back" 1
Layer: 1 1 "Fore" 0
XUID: [1021 410 -877779780 13252281]
StyleMap: 0x0040
FSType: 0
OS2Version: 4
OS2_WeightWidthSlopeOnly: 0
OS2_UseTypoMetrics: 1
CreationTime: 1664552904
ModificationTime: 1683782333
PfmFamily: 17
TTFWeight: 400
TTFWidth: 5
LineGap: 90
VLineGap: 0
Panose: 2 0 5 3 0 0 0 0 0 0
OS2TypoAscent: 800
OS2TypoAOffset: 0
OS2TypoDescent: -200
OS2TypoDOffset: 0
OS2TypoLinegap: 90
OS2WinAscent: 679
OS2WinAOffset: 0
OS2WinDescent: 111
OS2WinDOffset: 0
HheadAscent: 679
HheadAOffset: 0
HheadDescent: -111
HheadDOffset: 0
OS2SubXSize: 650
OS2SubYSize: 700
OS2SubXOff: 0
OS2SubYOff: 140
OS2SupXSize: 650
OS2SupYSize: 700
OS2SupXOff: 0
OS2SupYOff: 480
OS2StrikeYSize: 49
OS2StrikeYPos: 258
OS2CapHeight: 492
OS2XHeight: 492
OS2Vendor: 'PfEd'
OS2CodePages: 00000001.00000000
OS2UnicodeRanges: 00000001.00000000.00000000.00000000
MarkAttachClasses: 1
DEI: 91125
ShortTable: cvt  2
  33
  633
EndShort
ShortTable: maxp 16
  1
  0
  61
  283
  3
  0
  0
  2
  0
  1
  1
  0
  64
  46
  0
  0
EndShort
LangName: 1033 "" "" "Regular" "FontForge 2.0 : Biohackers : 30-9-2022" "" "Version 001.000"
GaspTable: 1 65535 2 0
Encoding: ISO8859-1
UnicodeInterp: none
NameList: AGL For New Fonts
DisplaySize: -128
AntiAlias: 1
FitToEm: 0
WidthSeparation: 130
WinInfo: 98 7 6
BeginPrivate: 0
EndPrivate
Grid
-1147.89941406 1300 m 0
 -1147.89941406 -700 l 1024
-1000 579.200195312 m 0
 2000 579.200195312 l 1024
  Named: "height"
-115 1300 m 0
 -115 -700 l 1024
EndSplineSet
TeXData: 1 0 0 346030 173015 115343 -509440 0 115343 783286 444596 497025 792723 393216 433062 380633 303038 157286 324010 404750 52429 2506097 1059062 262144
BeginChars: 259 61

StartChar: A
Encoding: 65 65 3
Width: 567
GlyphClass: 1
Flags: W
LayerCount: 2
Fore
SplineSet
507.4921875 35.453125 m 2,0,1
 511.399414062 24.544921875 511.399414062 24.544921875 495.583007812 13.0751953125 c 128,-1,2
 479.766601562 1.60546875 479.766601562 1.60546875 462.9921875 0 c 128,-1,3
 446.21875 -1.6064453125 446.21875 -1.6064453125 439.227539062 8.072265625 c 2,4,-1
 400.567382812 99.857421875 l 1,5,-1
 147.3125 100.120117188 l 1,6,7
 136.3515625 81.76953125 136.3515625 81.76953125 121.520507812 73.609375 c 128,-1,8
 106.690429688 65.44921875 106.690429688 65.44921875 94.25 68.3720703125 c 128,-1,9
 81.80859375 71.294921875 81.80859375 71.294921875 71.4833984375 80.05078125 c 128,-1,10
 61.1572265625 88.806640625 61.1572265625 88.806640625 59.205078125 104.288085938 c 128,-1,11
 57.251953125 119.76953125 57.251953125 119.76953125 63.3984375 136.725585938 c 2,12,-1
 228.934570312 539.376953125 l 2,13,14
 238.288085938 562.127929688 238.288085938 562.127929688 278.494140625 562.25390625 c 128,-1,15
 318.700195312 562.379882812 318.700195312 562.379882812 326.998046875 539.376953125 c 2,16,-1
 507.4921875 35.453125 l 2,0,1
330.618164062 320.987304688 m 1,17,-1
 283.921875 472.911132812 l 2,18,19
 282.549804688 477.374023438 282.549804688 477.374023438 274.583007812 477.374023438 c 128,-1,20
 266.615234375 477.374023438 266.615234375 477.374023438 265.243164062 472.911132812 c 2,21,22
 265.243164062 472.911132812 265.243164062 472.911132812 218.545898438 320.987304688 c 1,23,-1
 330.618164062 320.987304688 l 1,17,-1
198.116210938 254.521484375 m 1,24,-1
 174.767578125 178.559570312 l 1,25,-1
 374.396484375 178.559570312 l 1,26,-1
 351.048828125 254.521484375 l 1,27,-1
 198.116210938 254.521484375 l 1,24,-1
EndSplineSet
EndChar

StartChar: B
Encoding: 66 66 4
Width: 530
GlyphClass: 1
Flags: W
LayerCount: 2
Fore
SplineSet
201.591796875 1.85546875 m 4,0,1
 137.970703125 1.259765625 137.970703125 1.259765625 64.9140625 8 c 5,2,-1
 64.9140625 442.975585938 l 6,3,4
 64.9140625 454.698242188 64.9140625 454.698242188 83.89453125 459.525390625 c 132,-1,5
 102.875 464.352539062 102.875 464.352539062 121.85546875 459.525390625 c 132,-1,6
 140.8359375 454.698242188 140.8359375 454.698242188 140.8359375 442.975585938 c 6,7,-1
 140.8359375 323.938476562 l 5,8,9
 185.588867188 319.278320312 185.588867188 319.278320312 242.107421875 323.840820312 c 132,-1,10
 298.625976562 328.40234375 298.625976562 328.40234375 338.484375 348.245117188 c 4,11,12
 366.96875 364.083984375 366.96875 364.083984375 370.147460938 396.487304688 c 132,-1,13
 373.325195312 428.891601562 373.325195312 428.891601562 349.912109375 449.873046875 c 4,14,15
 330.755859375 469.731445312 330.755859375 469.731445312 284.649414062 483.013671875 c 4,16,17
 268.306640625 487.721679688 268.306640625 487.721679688 261.356445312 503.416992188 c 132,-1,18
 254.40625 519.112304688 254.40625 519.112304688 260.81640625 533.908203125 c 132,-1,19
 267.2265625 548.704101562 267.2265625 548.704101562 284.649414062 550.995117188 c 4,20,21
 299.53515625 552.952148438 299.53515625 552.952148438 317.966796875 549.454101562 c 132,-1,22
 336.397460938 545.956054688 336.397460938 545.956054688 345.461914062 542.700195312 c 132,-1,23
 354.526367188 539.443359375 354.526367188 539.443359375 376.712890625 530.802734375 c 4,24,25
 414.659179688 513.95703125 414.659179688 513.95703125 438.38671875 481.900390625 c 132,-1,26
 462.114257812 449.84375 462.114257812 449.84375 461.461914062 413.278320312 c 4,27,28
 462.821289062 376.307617188 462.821289062 376.307617188 443.712890625 342.96875 c 132,-1,29
 424.603515625 309.630859375 424.603515625 309.630859375 389.125 293.314453125 c 4,30,31
 386.666992188 291.974609375 386.666992188 291.974609375 376.860351562 288.717773438 c 4,32,33
 359.241210938 282.865234375 359.241210938 282.865234375 358.540039062 280.213867188 c 132,-1,34
 357.809570312 277.454101562 357.809570312 277.454101562 369.836914062 275.831054688 c 4,35,36
 417.43359375 262.045898438 417.43359375 262.045898438 444.615234375 221.524414062 c 132,-1,37
 471.796875 181.002929688 471.796875 181.002929688 462.884765625 137.356445312 c 4,38,39
 457.223632812 96.9306640625 457.223632812 96.9306640625 425.95703125 64.5703125 c 132,-1,40
 394.69140625 32.2109375 394.69140625 32.2109375 350.315429688 19.369140625 c 4,41,42
 342.580078125 16.83203125 342.580078125 16.83203125 334.751953125 14.7392578125 c 132,-1,43
 326.923828125 12.646484375 326.923828125 12.646484375 317.772460938 11.056640625 c 132,-1,44
 308.62109375 9.466796875 308.62109375 9.466796875 302.150390625 8.291015625 c 132,-1,45
 295.6796875 7.115234375 295.6796875 7.115234375 284.810546875 6.1845703125 c 132,-1,46
 273.94140625 5.25390625 273.94140625 5.25390625 268.91796875 4.72265625 c 132,-1,47
 263.893554688 4.19140625 263.893554688 4.19140625 251.396484375 3.6484375 c 132,-1,48
 238.8984375 3.1044921875 238.8984375 3.1044921875 235.41015625 2.9453125 c 132,-1,49
 231.921875 2.787109375 231.921875 2.787109375 217.883789062 2.3583984375 c 132,-1,50
 203.846679688 1.9287109375 203.846679688 1.9287109375 201.591796875 1.85546875 c 4,0,1
283.469726562 232.193359375 m 4,51,52
 236.4296875 241.583984375 236.4296875 241.583984375 150.4140625 236.888671875 c 5,53,54
 150.4140625 236.888671875 150.4140625 236.888671875 150.4140625 75.5029296875 c 5,55,56
 231.534179688 66.7294921875 231.534179688 66.7294921875 294.423828125 79.7177734375 c 4,57,58
 347.823242188 91.90625 347.823242188 91.90625 365.176757812 121.626953125 c 4,59,60
 375.791015625 139.692382812 375.791015625 139.692382812 373.130859375 162.095703125 c 132,-1,61
 370.470703125 184.499023438 370.470703125 184.499023438 354.424804688 199.361328125 c 4,62,63
 331.842773438 222.498046875 331.842773438 222.498046875 283.469726562 232.193359375 c 4,51,52
EndSplineSet
EndChar

StartChar: C
Encoding: 67 67 5
Width: 564
GlyphClass: 1
Flags: W
LayerCount: 2
Fore
SplineSet
190.409179688 408.965820312 m 5,0,1
 154.056640625 359.879882812 154.056640625 359.879882812 147.389648438 302.87109375 c 132,-1,2
 140.723632812 245.862304688 140.723632812 245.862304688 160.19921875 198.64453125 c 132,-1,3
 179.67578125 151.427734375 179.67578125 151.427734375 223.6328125 117.173828125 c 132,-1,4
 267.58984375 82.919921875 267.58984375 82.919921875 326.106445312 76.365234375 c 4,5,6
 344.142578125 75.9765625 344.142578125 75.9765625 351.762695312 56.9052734375 c 132,-1,7
 359.381835938 37.8330078125 359.381835938 37.8330078125 351.98828125 18.9189453125 c 132,-1,8
 344.59375 0.00390625 344.59375 0.00390625 326.106445312 0 c 4,9,10
 264.918945312 2.94921875 264.918945312 2.94921875 215.276367188 23.7021484375 c 132,-1,11
 165.6328125 44.455078125 165.6328125 44.455078125 133.952148438 77.84765625 c 132,-1,12
 102.271484375 111.240234375 102.271484375 111.240234375 81.7001953125 155.174804688 c 132,-1,13
 61.12890625 199.110351562 61.12890625 199.110351562 58.0849609375 248.423828125 c 132,-1,14
 55.041015625 297.737304688 55.041015625 297.737304688 62.671875 350.333007812 c 4,15,16
 74.1259765625 415.21875 74.1259765625 415.21875 120.444335938 467.168945312 c 132,-1,17
 166.762695312 519.118164062 166.762695312 519.118164062 232.6875 537.072265625 c 4,18,19
 297.127929688 556.390625 297.127929688 556.390625 366.8125 547.09375 c 132,-1,20
 436.497070312 537.796875 436.497070312 537.796875 492.3828125 502.048828125 c 4,21,22
 505.686523438 493.03125 505.686523438 493.03125 506.700195312 476.900390625 c 132,-1,23
 507.713867188 460.76953125 507.713867188 460.76953125 496.32421875 449.486328125 c 132,-1,24
 484.934570312 438.203125 484.934570312 438.203125 466.977539062 441.703125 c 4,25,26
 414.703125 458.245117188 414.703125 458.245117188 367.364257812 463.842773438 c 132,-1,27
 320.026367188 469.440429688 320.026367188 469.440429688 270.106445312 457.010742188 c 132,-1,28
 220.185546875 444.581054688 220.185546875 444.581054688 190.409179688 408.965820312 c 5,0,1
EndSplineSet
EndChar

StartChar: D
Encoding: 68 68 6
Width: 513
GlyphClass: 1
Flags: W
LayerCount: 2
Fore
SplineSet
57.2216796875 10.513671875 m 5,0,1
 56.05859375 63.1474609375 56.05859375 63.1474609375 56.6943359375 272.39453125 c 132,-1,2
 57.3291015625 481.641601562 57.3291015625 481.641601562 57.2216796875 534.27734375 c 5,3,4
 165.368164062 566.00390625 165.368164062 566.00390625 278.948242188 532.897460938 c 4,5,6
 362.51171875 508.540039062 362.51171875 508.540039062 412.275390625 427.853515625 c 4,7,8
 451.188476562 364.759765625 451.188476562 364.759765625 455.919921875 289.13671875 c 132,-1,9
 460.651367188 213.512695312 460.651367188 213.512695312 428.73046875 146.38671875 c 4,10,11
 403.205078125 93.654296875 403.205078125 93.654296875 358.727539062 56.5205078125 c 132,-1,12
 314.25 19.38671875 314.25 19.38671875 259.6875 10 c 4,13,14
 138.744140625 -10.806640625 138.744140625 -10.806640625 57.2216796875 10.513671875 c 5,0,1
298.391601562 438.928710938 m 4,15,16
 280.087890625 451.512695312 280.087890625 451.512695312 249.822265625 458.395507812 c 132,-1,17
 219.557617188 465.279296875 219.557617188 465.279296875 196.864257812 466.696289062 c 132,-1,18
 174.170898438 468.11328125 174.170898438 468.11328125 137.596679688 468.678710938 c 5,19,20
 137.41015625 439.98046875 137.41015625 439.98046875 137.708984375 325.591796875 c 5,21,22
 137.708984375 325.591796875 137.708984375 325.591796875 255.158203125 326.435546875 c 6,23,24
 274.365234375 326.573242188 274.365234375 326.573242188 286.401367188 310.203125 c 132,-1,25
 298.4375 293.833007812 298.4375 293.833007812 292.366210938 275.481445312 c 4,26,27
 283.688476562 249.252929688 283.688476562 249.252929688 244.396484375 249 c 6,28,29
 244.396484375 249 244.396484375 249 137.708984375 248.30859375 c 5,30,-1
 137.708984375 80.345703125 l 5,31,-1
 173.41015625 80.5419921875 l 6,32,33
 209.111328125 80.7392578125 209.111328125 80.7392578125 251.908203125 85.9970703125 c 132,-1,34
 294.706054688 91.2548828125 294.706054688 91.2548828125 308.8984375 101.376953125 c 4,35,36
 346.48828125 128.1875 346.48828125 128.1875 363.548828125 178.369140625 c 132,-1,37
 380.609375 228.55078125 380.609375 228.55078125 378.551757812 282.631835938 c 4,38,39
 376.768554688 329.536132812 376.768554688 329.536132812 355.873046875 371.657226562 c 132,-1,40
 334.9765625 413.779296875 334.9765625 413.779296875 298.391601562 438.928710938 c 4,15,16
EndSplineSet
EndChar

StartChar: E
Encoding: 69 69 7
Width: 515
GlyphClass: 1
Flags: W
LayerCount: 2
Fore
SplineSet
100.857421875 549.888671875 m 6,0,-1
 436.689453125 549.124023438 l 6,1,2
 449.182617188 549.095703125 449.182617188 549.095703125 454.327148438 529.282226562 c 132,-1,3
 459.470703125 509.469726562 459.470703125 509.469726562 454.327148438 489.66796875 c 132,-1,4
 449.182617188 469.8671875 449.182617188 469.8671875 436.689453125 469.8671875 c 6,5,-1
 141.616210938 469.8671875 l 5,6,-1
 141.616210938 435.842773438 l 5,7,-1
 320.767578125 435.842773438 l 6,8,9
 333.555664062 435.842773438 333.555664062 435.842773438 338.822265625 415.837890625 c 132,-1,10
 344.087890625 395.83203125 344.087890625 395.83203125 338.822265625 375.826171875 c 132,-1,11
 333.555664062 355.821289062 333.555664062 355.821289062 320.767578125 355.821289062 c 6,12,-1
 141.616210938 355.821289062 l 5,13,-1
 141.616210938 315.810546875 l 5,14,-1
 436.689453125 315.810546875 l 6,15,16
 449.671875 315.810546875 449.671875 315.810546875 455.017578125 295.805664062 c 132,-1,17
 460.36328125 275.80078125 460.36328125 275.80078125 455.017578125 255.794921875 c 132,-1,18
 449.671875 235.790039062 449.671875 235.790039062 436.689453125 235.790039062 c 6,19,-1
 141.616210938 235.790039062 l 5,20,-1
 141.616210938 79.91015625 l 5,21,-1
 436.689453125 79.91015625 l 6,22,23
 449.390625 79.91015625 449.390625 79.91015625 454.62109375 59.9033203125 c 132,-1,24
 459.850585938 39.8955078125 459.850585938 39.8955078125 454.62109375 19.8896484375 c 132,-1,25
 449.390625 -0.115234375 449.390625 -0.115234375 436.689453125 -0.111328125 c 6,26,27
 436.689453125 -0.111328125 436.689453125 -0.111328125 100.221679688 0 c 4,28,29
 82.541015625 0.005859375 82.541015625 0.005859375 69.9248046875 14.09765625 c 132,-1,30
 57.3095703125 28.1884765625 57.3095703125 28.1884765625 57.3095703125 44.1669921875 c 6,31,-1
 57.3095703125 504.510742188 l 6,32,33
 57.3095703125 521.9921875 57.3095703125 521.9921875 69.5498046875 535.961914062 c 132,-1,34
 81.791015625 549.931640625 81.791015625 549.931640625 100.857421875 549.888671875 c 6,0,-1
EndSplineSet
EndChar

StartChar: F
Encoding: 70 70 8
Width: 506
GlyphClass: 1
Flags: W
LayerCount: 2
Fore
SplineSet
153.96875 23.623046875 m 6,0,1
 153.96875 9.0146484375 153.96875 9.0146484375 128.755859375 3 c 132,-1,2
 103.54296875 -3.0146484375 103.54296875 -3.0146484375 78.326171875 3 c 132,-1,3
 53.109375 9.0146484375 53.109375 9.0146484375 53.1015625 23.623046875 c 6,4,-1
 52.818359375 515.275390625 l 6,5,6
 52.8095703125 530.396484375 52.8095703125 530.396484375 70.4775390625 540.54296875 c 132,-1,7
 88.1455078125 550.689453125 88.1455078125 550.689453125 110.084960938 550.689453125 c 6,8,-1
 433.202148438 550.689453125 l 6,9,10
 445.553710938 550.689453125 445.553710938 550.689453125 450.638671875 532.64453125 c 132,-1,11
 455.724609375 514.600585938 455.724609375 514.600585938 450.638671875 496.552734375 c 132,-1,12
 445.553710938 478.505859375 445.553710938 478.505859375 433.202148438 478.498046875 c 6,13,-1
 153.96875 478.337890625 l 5,14,-1
 153.96875 445.962890625 l 5,15,-1
 315.733398438 445.608398438 l 6,16,17
 328.21875 445.581054688 328.21875 445.581054688 333.357421875 427.366210938 c 132,-1,18
 338.497070312 409.151367188 338.497070312 409.151367188 333.357421875 390.924804688 c 132,-1,19
 328.21875 372.698242188 328.21875 372.698242188 315.733398438 372.640625 c 6,20,-1
 153.96875 371.905273438 l 5,21,-1
 153.96875 329.708984375 l 5,22,-1
 352.963867188 329.463867188 l 6,23,24
 365.727539062 329.448242188 365.727539062 329.448242188 370.982421875 310.803710938 c 132,-1,25
 376.237304688 292.159179688 376.237304688 292.159179688 370.982421875 273.516601562 c 132,-1,26
 365.727539062 254.873046875 365.727539062 254.873046875 352.963867188 254.860351562 c 6,27,-1
 153.96875 254.659179688 l 5,28,-1
 153.96875 23.623046875 l 6,0,1
EndSplineSet
EndChar

StartChar: G
Encoding: 71 71 9
Width: 604
GlyphClass: 1
Flags: W
LayerCount: 2
Fore
SplineSet
523.89453125 497.583007812 m 4,0,1
 531.9296875 482.861328125 531.9296875 482.861328125 522.491210938 463.420898438 c 4,2,3
 515.994140625 453 515.994140625 453 502.690429688 449.293945312 c 132,-1,4
 489.38671875 445.587890625 489.38671875 445.587890625 477.658203125 449.813476562 c 4,5,6
 436.6953125 467.276367188 436.6953125 467.276367188 399.24609375 470.908203125 c 132,-1,7
 361.796875 474.540039062 361.796875 474.540039062 307.87890625 472.224609375 c 4,8,9
 290.513671875 472.463867188 290.513671875 472.463867188 277.794921875 485.609375 c 132,-1,10
 265.076171875 498.75390625 265.076171875 498.75390625 267.133789062 515.166992188 c 5,11,12
 281.307617188 545.140625 281.307617188 545.140625 336.546875 549.76953125 c 132,-1,13
 391.786132812 554.399414062 391.786132812 554.399414062 447.790039062 538.114257812 c 132,-1,14
 503.793945312 521.828125 503.793945312 521.828125 523.89453125 497.583007812 c 4,0,1
169.357421875 288.079101562 m 4,15,16
 163.515625 200.4765625 163.515625 200.4765625 206.080078125 151.859375 c 4,17,18
 265.697265625 81.8037109375 265.697265625 81.8037109375 442.041015625 86.3857421875 c 5,19,-1
 442.041015625 213.077148438 l 5,20,-1
 355.397460938 214.546875 l 6,21,22
 336.5390625 216.4453125 336.5390625 216.4453125 327.224609375 233.510742188 c 132,-1,23
 317.911132812 250.577148438 317.911132812 250.577148438 328.016601562 266.124023438 c 4,24,25
 338.829101562 284.575195312 338.829101562 284.575195312 380.129882812 283.034179688 c 6,26,-1
 523.653320312 282.877929688 l 5,27,-1
 523.653320312 223.640625 l 5,28,-1
 522.198242188 45.7138671875 l 5,29,30
 493.005859375 16.279296875 493.005859375 16.279296875 438.638671875 6.587890625 c 132,-1,31
 384.271484375 -3.103515625 384.271484375 -3.103515625 336.958984375 2 c 132,-1,32
 289.646484375 7.103515625 289.646484375 7.103515625 250.729492188 19.048828125 c 4,33,34
 154.010742188 51.1376953125 154.010742188 51.1376953125 111.111328125 129.874023438 c 4,35,36
 57.4921875 227.172851562 57.4921875 227.172851562 86.724609375 359.248046875 c 5,37,38
 99.376953125 382.356445312 99.376953125 382.356445312 122.540039062 385.965820312 c 132,-1,39
 145.703125 389.57421875 145.703125 389.57421875 162.077148438 373.794921875 c 132,-1,40
 178.451171875 358.015625 178.451171875 358.015625 174.01953125 332.344726562 c 4,41,42
 173.90234375 325.489257812 173.90234375 325.489257812 171.565429688 310.704101562 c 132,-1,43
 169.227539062 295.919921875 169.227539062 295.919921875 169.357421875 288.079101562 c 4,15,16
EndSplineSet
EndChar

StartChar: H
Encoding: 72 72 10
Width: 525
GlyphClass: 1
Flags: W
HStem: 126 62<215.805 392.805> 236 65<215.805 455.805>
VStem: 136.805 79<2 126 189 236 301 533> 456.805 79<17 236 301 544>
LayerCount: 2
Fore
SplineSet
63.8515625 17.421875 m 6,0,-1
 62.5 526.4296875 l 6,1,2
 62.4658203125 539.333984375 62.4658203125 539.333984375 82.2177734375 544.647460938 c 132,-1,3
 101.96875 549.961914062 101.96875 549.961914062 121.73828125 544.647460938 c 132,-1,4
 141.5078125 539.333984375 141.5078125 539.333984375 141.516601562 526.4296875 c 6,5,-1
 141.673828125 307.857421875 l 5,6,-1
 383.248046875 307.359375 l 5,7,-1
 383.518554688 526.4296875 l 6,8,9
 383.53515625 539.328125 383.53515625 539.328125 403.280273438 544.639648438 c 132,-1,10
 423.025390625 549.950195312 423.025390625 549.950195312 442.763671875 544.639648438 c 132,-1,11
 462.501953125 539.328125 462.501953125 539.328125 462.5 526.4296875 c 6,12,-1
 462.421875 17.421875 l 6,13,14
 462.419921875 4.5146484375 462.419921875 4.5146484375 442.696289062 -0.7978515625 c 132,-1,15
 422.97265625 -6.1103515625 422.97265625 -6.1103515625 403.219726562 -0.7978515625 c 132,-1,16
 383.467773438 4.515625 383.467773438 4.515625 383.396484375 17.421875 c 6,17,-1
 382.16796875 240.110351562 l 5,18,-1
 141.673828125 240.608398438 l 5,19,-1
 141.673828125 191.291992188 l 5,20,-1
 298.940429688 191.04296875 l 6,21,22
 308.7421875 191.02734375 308.7421875 191.02734375 312.77734375 174.876953125 c 132,-1,23
 316.813476562 158.727539062 316.813476562 158.727539062 312.77734375 142.583984375 c 132,-1,24
 308.7421875 126.440429688 308.7421875 126.440429688 298.940429688 126.440429688 c 6,25,-1
 141.689453125 126.440429688 l 5,26,-1
 139.428710938 17.421875 l 6,27,28
 139.172851562 5.078125 139.172851562 5.078125 120.3046875 0 c 132,-1,29
 101.4375 -5.078125 101.4375 -5.078125 82.6611328125 -0.0009765625 c 132,-1,30
 63.884765625 5.0751953125 63.884765625 5.0751953125 63.8515625 17.421875 c 6,0,-1
EndSplineSet
EndChar

StartChar: I
Encoding: 73 73 11
Width: 241
GlyphClass: 1
Flags: W
VStem: 61.9248 116<10 535>
LayerCount: 2
Fore
SplineSet
70.5 31.6728515625 m 6,0,-1
 70.5 519.408203125 l 6,1,2
 70.5 539.009765625 70.5 539.009765625 95.5 547.081054688 c 132,-1,3
 120.5 555.15234375 120.5 555.15234375 145.5 547.081054688 c 132,-1,4
 170.5 539.009765625 170.5 539.009765625 170.5 519.408203125 c 6,5,-1
 170.5 31.6728515625 l 6,6,7
 170.5 12.0712890625 170.5 12.0712890625 145.5 4 c 132,-1,8
 120.5 -4.0712890625 120.5 -4.0712890625 95.5 4 c 132,-1,9
 70.5 12.0712890625 70.5 12.0712890625 70.5 31.6728515625 c 6,0,-1
EndSplineSet
EndChar

StartChar: J
Encoding: 74 74 12
Width: 478
GlyphClass: 1
Flags: W
LayerCount: 2
Fore
SplineSet
423.040039062 483.486328125 m 6,0,-1
 323.118164062 483.486328125 l 5,1,2
 323.866210938 294.576171875 323.866210938 294.576171875 322.893554688 202.162109375 c 4,3,4
 322.615234375 194.961914062 322.615234375 194.961914062 322.427734375 171.385742188 c 132,-1,5
 322.239257812 147.809570312 322.239257812 147.809570312 321.15234375 136.979492188 c 132,-1,6
 320.064453125 126.150390625 320.064453125 126.150390625 316.806640625 107.78125 c 132,-1,7
 313.549804688 89.4111328125 313.549804688 89.4111328125 305.866210938 75.203125 c 132,-1,8
 298.18359375 60.994140625 298.18359375 60.994140625 286.0703125 48.0810546875 c 4,9,10
 269.295898438 24.3603515625 269.295898438 24.3603515625 243.271484375 11 c 132,-1,11
 217.247070312 -2.361328125 217.247070312 -2.361328125 189.3046875 -0.0751953125 c 4,12,13
 149.504882812 -0.8291015625 149.504882812 -0.8291015625 130.8828125 6.7275390625 c 4,14,15
 88.0185546875 21.1025390625 88.0185546875 21.1025390625 63.0849609375 62.0830078125 c 132,-1,16
 38.1513671875 103.063476562 38.1513671875 103.063476562 38.873046875 150.044921875 c 4,17,18
 41.1474609375 178.212890625 41.1474609375 178.212890625 59.5673828125 188.6328125 c 132,-1,19
 77.9873046875 199.052734375 77.9873046875 199.052734375 95.7392578125 186.53125 c 132,-1,20
 113.491210938 174.010742188 113.491210938 174.010742188 114.12109375 145.725585938 c 4,21,22
 113.909179688 121.607421875 113.909179688 121.607421875 127.434570312 101.178710938 c 132,-1,23
 140.959960938 80.7509765625 140.959960938 80.7509765625 163.522460938 75.2978515625 c 4,24,25
 189.169921875 68.0009765625 189.169921875 68.0009765625 215.079101562 84.724609375 c 132,-1,26
 240.98828125 101.448242188 240.98828125 101.448242188 245.28515625 127.266601562 c 5,27,-1
 245.28515625 276.791015625 l 5,28,-1
 133.794921875 276.680664062 l 5,29,30
 114.862304688 291.60546875 114.862304688 291.60546875 114.862304688 313.05859375 c 132,-1,31
 114.862304688 334.51171875 114.862304688 334.51171875 133.794921875 349.354492188 c 4,32,33
 133.794921875 349.354492188 133.794921875 349.354492188 244.233398438 349.354492188 c 5,34,-1
 244.233398438 483.486328125 l 5,35,-1
 144.3125 483.486328125 l 6,36,37
 133.828125 483.486328125 133.828125 483.486328125 129.510742188 500.017578125 c 132,-1,38
 125.193359375 516.548828125 125.193359375 516.548828125 129.510742188 533.080078125 c 132,-1,39
 133.828125 549.611328125 133.828125 549.611328125 144.3125 549.611328125 c 6,40,-1
 423.040039062 549.611328125 l 6,41,42
 432.998046875 549.611328125 432.998046875 549.611328125 437.09765625 533.080078125 c 132,-1,43
 441.198242188 516.548828125 441.198242188 516.548828125 437.09765625 500.017578125 c 132,-1,44
 432.998046875 483.486328125 432.998046875 483.486328125 423.040039062 483.486328125 c 6,0,-1
EndSplineSet
EndChar

StartChar: K
Encoding: 75 75 13
Width: 494
GlyphClass: 1
Flags: W
LayerCount: 2
Fore
SplineSet
47.2626953125 22.2392578125 m 6,0,-1
 46.9892578125 480.076171875 l 6,1,2
 46.98046875 493.708007812 46.98046875 493.708007812 70.064453125 499.3203125 c 132,-1,3
 93.1474609375 504.932617188 93.1474609375 504.932617188 116.251953125 499.3203125 c 132,-1,4
 139.356445312 493.708007812 139.356445312 493.708007812 139.399414062 480.076171875 c 6,5,-1
 139.875976562 329.740234375 l 5,6,-1
 339.883789062 544.622070312 l 6,7,8
 352.934570312 558.643554688 352.934570312 558.643554688 387.82421875 542.028320312 c 4,9,10
 417.5234375 527.885742188 417.5234375 527.885742188 411.958007812 514.12109375 c 4,11,12
 411.345703125 512.607421875 411.345703125 512.607421875 410.181640625 511.221679688 c 6,13,-1
 282.711914062 359.500976562 l 5,14,-1
 445.477539062 51.7861328125 l 6,15,16
 449.079101562 44.9765625 449.079101562 44.9765625 444.22265625 35.662109375 c 132,-1,17
 439.365234375 26.34765625 439.365234375 26.34765625 429.788085938 18.818359375 c 132,-1,18
 420.2109375 11.2890625 420.2109375 11.2890625 408.91796875 5.546875 c 132,-1,19
 397.624023438 -0.1962890625 397.624023438 -0.1962890625 388.352539062 0.138671875 c 132,-1,20
 379.081054688 0.4736328125 379.081054688 0.4736328125 374.8359375 6.88671875 c 6,21,-1
 219.811523438 292.244140625 l 5,22,-1
 139.915039062 227.150390625 l 5,23,-1
 139.6484375 22.2392578125 l 6,24,25
 139.630859375 8.611328125 139.630859375 8.611328125 116.5390625 3 c 132,-1,26
 93.447265625 -2.6103515625 93.447265625 -2.6103515625 70.3583984375 3 c 132,-1,27
 47.2705078125 8.611328125 47.2705078125 8.611328125 47.2626953125 22.2392578125 c 6,0,-1
EndSplineSet
EndChar

StartChar: L
Encoding: 76 76 14
Width: 432
GlyphClass: 1
Flags: W
HStem: 0 101<120.671 417.671>
VStem: 20.6713 100<101 541>
LayerCount: 2
Fore
SplineSet
395.296875 -0.2744140625 m 2,0,-1
 97.861328125 -0.2744140625 l 2,1,2
 69.04296875 -0.2744140625 69.04296875 -0.2744140625 42.4267578125 26.8388671875 c 128,-1,3
 15.8095703125 53.9521484375 15.8095703125 53.9521484375 15.8095703125 83.935546875 c 2,4,-1
 15.8095703125 528.157226562 l 2,5,6
 15.8095703125 538.342773438 15.8095703125 538.342773438 28.630859375 544.133789062 c 128,-1,7
 41.451171875 549.924804688 41.451171875 549.924804688 56.8359375 549.924804688 c 128,-1,8
 72.220703125 549.924804688 72.220703125 549.924804688 85.041015625 544.133789062 c 128,-1,9
 97.861328125 538.342773438 97.861328125 538.342773438 97.861328125 528.157226562 c 2,10,-1
 97.861328125 86 l 1,11,-1
 395.296875 86 l 2,12,13
 408.212890625 86 408.212890625 86 413.53125 64.431640625 c 128,-1,14
 418.849609375 42.8623046875 418.849609375 42.8623046875 413.53125 21.2939453125 c 128,-1,15
 408.212890625 -0.2744140625 408.212890625 -0.2744140625 395.296875 -0.2744140625 c 2,0,-1
EndSplineSet
EndChar

StartChar: M
Encoding: 77 77 15
Width: 528
GlyphClass: 1
Flags: W
LayerCount: 2
Fore
SplineSet
144 136.50390625 m 5,0,-1
 144 22.2724609375 l 6,1,2
 144 11.8984375 144 11.8984375 131.5 6 c 132,-1,3
 119 0.1015625 119 0.1015625 104 0.1015625 c 132,-1,4
 89 0.1015625 89 0.1015625 76.5 6 c 132,-1,5
 64 11.8984375 64 11.8984375 64 22.2724609375 c 6,6,-1
 64 531.920898438 l 6,7,8
 64.236328125 551.001953125 64.236328125 551.001953125 99.0966796875 550.287109375 c 132,-1,9
 133.95703125 549.572265625 133.95703125 549.572265625 144 531.920898438 c 6,10,-1
 264 312.245117188 l 5,11,-1
 264 136.50390625 l 5,12,-1
 144 136.50390625 l 5,0,-1
384 136.50390625 m 5,13,-1
 264 136.50390625 l 5,14,-1
 264 312.245117188 l 5,15,16
 342.415039062 458.83984375 342.415039062 458.83984375 384 531.920898438 c 4,17,18
 394.04296875 549.572265625 394.04296875 549.572265625 428.903320312 550.287109375 c 132,-1,19
 463.763671875 551.001953125 463.763671875 551.001953125 464 531.920898438 c 6,20,-1
 464 22.2724609375 l 6,21,22
 464 8.44140625 464 8.44140625 444 2.74609375 c 132,-1,23
 424 -2.94921875 424 -2.94921875 404 2.74609375 c 132,-1,24
 384 8.44140625 384 8.44140625 384 22.2724609375 c 6,25,-1
 384 136.50390625 l 5,13,-1
144 382.249023438 m 5,26,-1
 144 224.374023438 l 5,27,-1
 234 224.374023438 l 5,28,-1
 144 382.249023438 l 5,26,-1
384 382.249023438 m 5,29,-1
 294 224.374023438 l 5,30,-1
 384 224.374023438 l 5,31,-1
 384 382.249023438 l 5,29,-1
EndSplineSet
EndChar

StartChar: N
Encoding: 78 78 16
Width: 520
GlyphClass: 1
Flags: W
LayerCount: 2
Fore
SplineSet
380 21.767578125 m 6,0,-1
 140 377.650390625 l 5,1,-1
 140 21.767578125 l 6,2,3
 140 11.58203125 140 11.58203125 127.5 5.791015625 c 132,-1,4
 115 0 115 0 100 0 c 132,-1,5
 85 0 85 0 72.5 5.791015625 c 132,-1,6
 60 11.58203125 60 11.58203125 60 21.767578125 c 6,7,-1
 60 507.061523438 l 6,8,9
 60.52734375 527.848632812 60.52734375 527.848632812 94.1181640625 526.567382812 c 132,-1,10
 127.708984375 525.287109375 127.708984375 525.287109375 140 507.061523438 c 6,11,-1
 380 151.1796875 l 5,12,-1
 380 463.924804688 l 5,13,-1
 260 463.924804688 l 6,14,15
 244.920898438 463.924804688 244.920898438 463.924804688 244.920898438 507.0625 c 132,-1,16
 244.920898438 550.19921875 244.920898438 550.19921875 260 550.19921875 c 6,17,-1
 430.87109375 550.19921875 l 6,18,19
 460 550.19921875 460 550.19921875 460 463.924804688 c 6,20,-1
 460 21.767578125 l 6,21,22
 459.47265625 0.9814453125 459.47265625 0.9814453125 425.881835938 2.26171875 c 132,-1,23
 392.291015625 3.5419921875 392.291015625 3.5419921875 380 21.767578125 c 6,0,-1
EndSplineSet
EndChar

StartChar: O
Encoding: 79 79 17
Width: 598
GlyphClass: 1
Flags: W
LayerCount: 2
Fore
SplineSet
336.384765625 546.098632812 m 4,0,1
 398.5078125 533.189453125 398.5078125 533.189453125 444.256835938 484.708007812 c 132,-1,2
 490.005859375 436.225585938 490.005859375 436.225585938 508.658203125 372.881835938 c 4,3,4
 536.010742188 292.258789062 536.010742188 292.258789062 515.88671875 201.532226562 c 132,-1,5
 495.762695312 110.805664062 495.762695312 110.805664062 432.256835938 51.869140625 c 4,6,7
 374.8828125 1.0625 374.8828125 1.0625 313.995117188 0 c 4,8,9
 290.341796875 1.2333984375 290.341796875 1.2333984375 282.196289062 25.0029296875 c 132,-1,10
 274.051757812 48.7734375 274.051757812 48.7734375 293.834960938 62.474609375 c 4,11,12
 304.53125 71.7197265625 304.53125 71.7197265625 342.305664062 87.1298828125 c 132,-1,13
 380.079101562 102.5390625 380.079101562 102.5390625 391.645507812 122.018554688 c 5,14,15
 242.5390625 122.817382812 242.5390625 122.817382812 196.091796875 122.018554688 c 5,16,17
 193.930664062 97.0849609375 193.930664062 97.0849609375 166.227539062 90.29296875 c 132,-1,18
 138.525390625 83.5 138.525390625 83.5 122.969726562 104.243164062 c 4,19,20
 98.0048828125 136.459960938 98.0048828125 136.459960938 81.67578125 202.145507812 c 4,21,22
 63.564453125 282.869140625 63.564453125 282.869140625 85.9892578125 364.197265625 c 132,-1,23
 108.4140625 445.525390625 108.4140625 445.525390625 168.467773438 499.44140625 c 4,24,25
 203.004882812 529.649414062 203.004882812 529.649414062 247.7890625 542.631835938 c 132,-1,26
 292.573242188 555.614257812 292.573242188 555.614257812 336.384765625 546.098632812 c 4,0,1
432.921875 344.4609375 m 5,27,28
 432.921875 353.033203125 432.921875 353.033203125 429.021484375 367.39453125 c 132,-1,29
 425.12109375 381.756835938 425.12109375 381.756835938 414.99609375 400.793945312 c 132,-1,30
 404.87109375 419.83203125 404.87109375 419.83203125 390.340820312 436.100585938 c 132,-1,31
 375.810546875 452.369140625 375.810546875 452.369140625 351.465820312 463.697265625 c 132,-1,32
 327.120117188 475.025390625 327.120117188 475.025390625 297.865234375 475.025390625 c 132,-1,33
 268.608398438 475.025390625 268.608398438 475.025390625 244.263671875 463.697265625 c 132,-1,34
 219.918945312 452.369140625 219.918945312 452.369140625 205.388671875 436.100585938 c 132,-1,35
 190.858398438 419.83203125 190.858398438 419.83203125 180.733398438 400.793945312 c 132,-1,36
 170.608398438 381.756835938 170.608398438 381.756835938 166.708007812 367.39453125 c 132,-1,37
 162.80859375 353.033203125 162.80859375 353.033203125 162.80859375 344.4609375 c 5,38,39
 162.80859375 344.4609375 162.80859375 344.4609375 432.921875 344.4609375 c 5,27,28
441.92578125 189.71875 m 5,40,41
 458.970703125 225.971679688 458.970703125 225.971679688 450.9296875 286.432617188 c 5,42,43
 450.9296875 286.432617188 450.9296875 286.432617188 153.8046875 286.432617188 c 5,44,45
 144.439453125 226.078125 144.439453125 226.078125 162.80859375 189.71875 c 5,46,47
 162.80859375 189.71875 162.80859375 189.71875 441.92578125 189.71875 c 5,40,41
EndSplineSet
EndChar

StartChar: P
Encoding: 80 80 18
Width: 511
GlyphClass: 1
Flags: W
LayerCount: 2
Fore
SplineSet
378.98046875 509.326171875 m 5,0,1
 429.982421875 476.254882812 429.982421875 476.254882812 447.518554688 423.408203125 c 132,-1,2
 465.053710938 370.5625 465.053710938 370.5625 445.64453125 321.58984375 c 132,-1,3
 426.234375 272.618164062 426.234375 272.618164062 377.549804688 248.462890625 c 4,4,5
 344.818359375 232.227539062 344.818359375 232.227539062 300.8046875 224.91796875 c 132,-1,6
 256.791015625 217.608398438 256.791015625 217.608398438 217.78125 218.291015625 c 132,-1,7
 178.770507812 218.97265625 178.770507812 218.97265625 136.36328125 218.973632812 c 5,8,-1
 136.36328125 21.0166015625 l 6,9,10
 136.36328125 11.1826171875 136.36328125 11.1826171875 123.67578125 5.5908203125 c 132,-1,11
 110.987304688 0 110.987304688 0 95.7607421875 0 c 132,-1,12
 80.53515625 0 80.53515625 0 67.8466796875 5.5908203125 c 132,-1,13
 55.158203125 11.1826171875 55.158203125 11.1826171875 55.158203125 21.0166015625 c 6,14,-1
 55.158203125 507.743164062 l 6,15,16
 58.365234375 524.7890625 58.365234375 524.7890625 74.484375 534.828125 c 132,-1,17
 90.6044921875 544.868164062 90.6044921875 544.868164062 111.74609375 546.2890625 c 4,18,19
 173.942382812 555.412109375 173.942382812 555.412109375 252.383789062 546.583007812 c 132,-1,20
 330.826171875 537.752929688 330.826171875 537.752929688 378.98046875 509.326171875 c 5,0,1
372.651367188 413.678710938 m 4,21,22
 353.619140625 450.912109375 353.619140625 450.912109375 306.1484375 465.43359375 c 4,23,24
 244.07421875 484.559570312 244.07421875 484.559570312 136.36328125 479.123046875 c 5,25,26
 136.36328125 479.123046875 136.36328125 479.123046875 136.36328125 427.09375 c 5,27,-1
 248.01953125 427.09375 l 6,28,29
 260.744140625 427.09375 260.744140625 427.09375 265.983398438 406.383789062 c 132,-1,30
 271.221679688 385.674804688 271.221679688 385.674804688 265.983398438 364.947265625 c 132,-1,31
 260.744140625 344.219726562 260.744140625 344.219726562 248.01953125 344.176757812 c 6,32,33
 248.01953125 344.176757812 248.01953125 344.176757812 136.36328125 343.795898438 c 5,34,-1
 136.36328125 286.002929688 l 5,35,36
 228.638671875 281.00390625 228.638671875 281.00390625 269.641601562 287.525390625 c 4,37,38
 341.557617188 298.171875 341.557617188 298.171875 373.290039062 342.952148438 c 5,39,40
 391.251953125 376.379882812 391.251953125 376.379882812 372.651367188 413.678710938 c 4,21,22
EndSplineSet
EndChar

StartChar: Q
Encoding: 81 81 19
Width: 599
GlyphClass: 1
Flags: W
LayerCount: 2
Fore
SplineSet
299.827148438 456.310546875 m 4,0,1
 352.963867188 456.506835938 352.963867188 456.506835938 397.98046875 425.786132812 c 132,-1,2
 442.99609375 395.065429688 442.99609375 395.065429688 467.711914062 349.213867188 c 4,3,4
 507.8515625 278.4609375 507.8515625 278.4609375 497.452148438 192.353515625 c 132,-1,5
 487.052734375 106.24609375 487.052734375 106.24609375 426.53125 47.470703125 c 4,6,7
 416.828125 39.6591796875 416.828125 39.6591796875 399.619140625 29.2275390625 c 132,-1,8
 382.409179688 18.7958984375 382.409179688 18.7958984375 366.5390625 6.7353515625 c 5,9,10
 369.87890625 -1.6376953125 369.87890625 -1.6376953125 382.768554688 -16.7607421875 c 132,-1,11
 395.659179688 -31.8828125 395.659179688 -31.8828125 403.328125 -46.0361328125 c 132,-1,12
 410.997070312 -60.189453125 410.997070312 -60.189453125 406.654296875 -72.9775390625 c 4,13,14
 396.70703125 -96.8623046875 396.70703125 -96.8623046875 370.438476562 -93.267578125 c 132,-1,15
 344.169921875 -89.6728515625 344.169921875 -89.6728515625 332.959960938 -68.5478515625 c 4,16,17
 325.973632812 -60.580078125 325.973632812 -60.580078125 312.500976562 -38.138671875 c 132,-1,18
 299.028320312 -15.697265625 299.028320312 -15.697265625 287.98828125 -6 c 4,19,20
 278.038085938 -0.4296875 278.038085938 -0.4296875 254.920898438 6.21875 c 132,-1,21
 231.8046875 12.8681640625 231.8046875 12.8681640625 221.306640625 19.111328125 c 4,22,23
 176.64453125 41.1474609375 176.64453125 41.1474609375 147.442382812 81.2119140625 c 132,-1,24
 118.240234375 121.275390625 118.240234375 121.275390625 107.450195312 169.009765625 c 4,25,26
 90.3349609375 236.876953125 90.3349609375 236.876953125 109.643554688 283.536132812 c 5,27,28
 121.607421875 300.041992188 121.607421875 300.041992188 145.581054688 293.181640625 c 132,-1,29
 169.5546875 286.3203125 169.5546875 286.3203125 169.798828125 266.766601562 c 4,30,31
 170.15625 259.311523438 170.15625 259.311523438 167.854492188 233.96484375 c 132,-1,32
 165.552734375 208.618164062 165.552734375 208.618164062 168.813476562 201.15625 c 4,33,34
 173.651367188 159.625976562 173.651367188 159.625976562 193.727539062 124.809570312 c 132,-1,35
 213.802734375 89.9921875 213.802734375 89.9921875 250.38671875 72.37109375 c 4,36,37
 257.112304688 66.56640625 257.112304688 66.56640625 263.885742188 66.6552734375 c 132,-1,38
 270.658203125 66.7451171875 270.658203125 66.7451171875 272.135742188 71.708984375 c 132,-1,39
 273.61328125 76.671875 273.61328125 76.671875 268.751953125 84.5947265625 c 4,40,41
 261.787109375 103.400390625 261.787109375 103.400390625 271.905273438 121.965820312 c 132,-1,42
 282.0234375 140.530273438 282.0234375 140.530273438 304.645507812 138.604492188 c 4,43,44
 335.618164062 137.4921875 335.618164062 137.4921875 341.405273438 88.314453125 c 4,45,46
 343.067382812 61.0634765625 343.067382812 61.0634765625 371.116210938 84.21875 c 4,47,48
 377.850585938 89.77734375 377.850585938 89.77734375 382.206054688 95.412109375 c 4,49,50
 421.028320312 136.458984375 421.028320312 136.458984375 429.666015625 194.879882812 c 132,-1,51
 438.303710938 253.301757812 438.303710938 253.301757812 417.391601562 303.1875 c 4,52,53
 403.91796875 339.352539062 403.91796875 339.352539062 372.235351562 364.879882812 c 132,-1,54
 340.551757812 390.407226562 340.551757812 390.407226562 300.684570312 389.65234375 c 4,55,56
 289.543945312 390.852539062 289.543945312 390.852539062 268.739257812 384.639648438 c 132,-1,57
 247.934570312 378.427734375 247.934570312 378.427734375 236.974609375 379.887695312 c 4,58,59
 219.65625 383.779296875 219.65625 383.779296875 213.174804688 397.846679688 c 132,-1,60
 206.693359375 411.915039062 206.693359375 411.915039062 213.576171875 426.103515625 c 132,-1,61
 220.458007812 440.291992188 220.458007812 440.291992188 237.274414062 444.58203125 c 4,62,63
 267.272460938 455.440429688 267.272460938 455.440429688 299.827148438 456.310546875 c 4,0,1
EndSplineSet
EndChar

StartChar: R
Encoding: 82 82 20
Width: 492
GlyphClass: 1
InSpiro: 1
Flags: W
LayerCount: 2
Fore
SplineSet
443.920898438 22.216796875 m 2,0,1
 453.061523438 6.421875 453.061523438 6.421875 424.536132812 2.3935546875 c 0,2,3
 386.946289062 -2.9150390625 386.946289062 -2.9150390625 362.440429688 14.0791015625 c 0,4,5
 357.083984375 17.79296875 357.083984375 17.79296875 354.357421875 22.216796875 c 2,6,-1
 220.73046875 239.025390625 l 1,7,-1
 125.47265625 239.025390625 l 1,8,-1
 125.47265625 22.216796875 l 2,9,10
 125.47265625 11.822265625 125.47265625 11.822265625 113.033203125 5.9111328125 c 128,-1,11
 100.59375 0 100.59375 0 85.6669921875 0 c 128,-1,12
 70.7392578125 0 70.7392578125 0 58.2998046875 5.9111328125 c 128,-1,13
 45.8603515625 11.822265625 45.8603515625 11.822265625 45.8603515625 22.216796875 c 2,14,-1
 45.8603515625 407.436523438 l 2,15,16
 45.8603515625 417.831054688 45.8603515625 417.831054688 58.2998046875 423.7421875 c 128,-1,17
 70.7392578125 429.653320312 70.7392578125 429.653320312 85.6669921875 429.653320312 c 128,-1,18
 100.59375 429.653320312 100.59375 429.653320312 113.033203125 423.7421875 c 128,-1,19
 125.47265625 417.831054688 125.47265625 417.831054688 125.47265625 407.436523438 c 2,20,-1
 125.47265625 320.802734375 l 1,21,22
 226.055664062 305.922851562 226.055664062 305.922851562 299.194335938 332.974609375 c 0,23,24
 322.344726562 343.038085938 322.344726562 343.038085938 334.935546875 364.423828125 c 128,-1,25
 347.52734375 385.80859375 347.52734375 385.80859375 342.374023438 408.620117188 c 0,26,27
 337.1640625 436.435546875 337.1640625 436.435546875 308.084960938 452.87890625 c 128,-1,28
 279.004882812 469.323242188 279.004882812 469.323242188 244.890625 472.061523438 c 0,29,30
 221.379882812 472.729492188 221.379882812 472.729492188 211.71875 492.302734375 c 128,-1,31
 202.05859375 511.875976562 202.05859375 511.875976562 211.71875 531.114257812 c 128,-1,32
 221.379882812 550.352539062 221.379882812 550.352539062 244.890625 550.203125 c 0,33,34
 388.784179688 532.310546875 388.784179688 532.310546875 410.336914062 469.737304688 c 0,35,36
 427.342773438 426.327148438 427.342773438 426.327148438 419.276367188 376.572265625 c 128,-1,37
 411.209960938 326.817382812 411.209960938 326.817382812 376.420898438 292.143554688 c 0,38,39
 343.681640625 259.51171875 343.681640625 259.51171875 309.659179688 254.227539062 c 1,40,-1
 443.920898438 22.216796875 l 2,0,1
  Spiro
    443.921 22.2168 ]
    443.645 9.36353 o
    424.536 2.39355 o
    390.218 2.66064 o
    362.441 14.0791 o
    357.742 17.9705 o
    354.358 22.2168 [
    220.731 239.025 v
    125.473 239.025 v
    125.473 22.2168 ]
    122.363 12.9431 o
    113.033 5.91113 o
    99.9722 1.47778 o
    85.6673 0 o
    71.3616 1.47778 o
    58.3001 5.91113 o
    48.9705 12.9431 o
    45.8606 22.2168 [
    45.8606 407.437 ]
    48.9705 416.71 o
    58.3001 423.742 o
    71.3616 428.176 o
    85.6673 429.653 o
    99.9722 428.176 o
    113.033 423.742 o
    122.363 416.71 o
    125.473 407.437 [
    125.473 320.803 v
    219.195 316.406 o
    299.195 332.975 o
    319.705 345.869 o
    334.936 364.424 o
    343.091 386.165 o
    342.374 408.62 o
    331.197 433.593 o
    308.085 452.879 o
    277.747 465.897 o
    244.891 472.062 o
    224.843 477.456 o
    211.719 492.303 o
    206.889 511.792 o
    211.719 531.114 o
    224.843 545.506 o
    244.891 550.203 o
    358.199 521.14 o
    410.337 469.737 o
    421.075 424.741 o
    419.277 376.572 o
    404.53 330.588 o
    376.421 292.144 o
    343.361 266.349 o
    309.659 254.228 v
    0 0 z
  EndSpiro
EndSplineSet
EndChar

StartChar: S
Encoding: 83 83 21
Width: 498
GlyphClass: 1
Flags: W
LayerCount: 2
Fore
SplineSet
256.662109375 549.470703125 m 4,0,1
 345.231445312 546.392578125 345.231445312 546.392578125 427.07421875 516.020507812 c 4,2,3
 447.846679688 506.396484375 447.846679688 506.396484375 444.208007812 483.243164062 c 132,-1,4
 440.569335938 460.08984375 440.569335938 460.08984375 417.362304688 456.263671875 c 4,5,6
 402.5390625 455.005859375 402.5390625 455.005859375 376.780273438 462.5546875 c 132,-1,7
 351.021484375 470.104492188 351.021484375 470.104492188 341.465820312 471.104492188 c 4,8,9
 251.2734375 488.607421875 251.2734375 488.607421875 200.6171875 472.275390625 c 4,10,11
 173.647460938 462.443359375 173.647460938 462.443359375 158.293945312 439.165039062 c 132,-1,12
 142.940429688 415.88671875 142.940429688 415.88671875 148.131835938 390.723632812 c 4,13,14
 154.604492188 350.869140625 154.604492188 350.869140625 224.370117188 321.185546875 c 4,15,16
 241.344726562 313.983398438 241.344726562 313.983398438 282.598632812 300.096679688 c 132,-1,17
 323.853515625 286.209960938 323.853515625 286.209960938 352.368164062 272.4765625 c 132,-1,18
 380.8828125 258.743164062 380.8828125 258.743164062 402.326171875 238.853515625 c 4,19,20
 426.983398438 216.639648438 426.983398438 216.639648438 439.745117188 187.993164062 c 132,-1,21
 452.5078125 159.346679688 452.5078125 159.346679688 447.791992188 130.43359375 c 5,22,23
 439.53515625 110.703125 439.53515625 110.703125 413.522460938 105.88671875 c 132,-1,24
 387.508789062 101.069335938 387.508789062 101.069335938 371.76953125 117.083984375 c 5,25,26
 367.224609375 136.108398438 367.224609375 136.108398438 363.494140625 147.73046875 c 132,-1,27
 359.763671875 159.352539062 359.763671875 159.352539062 350.755859375 174.350585938 c 132,-1,28
 341.748046875 189.348632812 341.748046875 189.348632812 329.025390625 198.92578125 c 4,29,30
 303.801757812 218.12109375 303.801757812 218.12109375 247.30859375 237.212890625 c 132,-1,31
 190.815429688 256.305664062 190.815429688 256.305664062 176.904296875 262.87890625 c 4,32,33
 86.818359375 303.702148438 86.818359375 303.702148438 65.494140625 362.580078125 c 4,34,35
 50.1689453125 406.837890625 50.1689453125 406.837890625 70.927734375 452.512695312 c 132,-1,36
 91.6865234375 498.186523438 91.6865234375 498.186523438 137.010742188 521.512695312 c 4,37,38
 184.99609375 548.712890625 184.99609375 548.712890625 256.662109375 549.470703125 c 4,0,1
79.830078125 93.6123046875 m 4,39,40
 86.9697265625 94.337890625 86.9697265625 94.337890625 98.662109375 89.7734375 c 132,-1,41
 110.354492188 85.208984375 110.354492188 85.208984375 115.189453125 84.6455078125 c 4,42,43
 186.323242188 70.244140625 186.323242188 70.244140625 235.797851562 66.5986328125 c 4,44,45
 267.220703125 63.7158203125 267.220703125 63.7158203125 275.96875 46.326171875 c 4,46,47
 282.193359375 35.353515625 282.193359375 35.353515625 277.537109375 22.447265625 c 132,-1,48
 272.879882812 9.541015625 272.879882812 9.541015625 260.125976562 4.46484375 c 4,49,50
 250.981445312 -1.234375 250.981445312 -1.234375 225.237304688 0 c 4,51,52
 154.52734375 3.3076171875 154.52734375 3.3076171875 69.3251953125 31.638671875 c 4,53,54
 58.1181640625 37.0244140625 58.1181640625 37.0244140625 52.4814453125 47.705078125 c 132,-1,55
 46.8447265625 58.384765625 46.8447265625 58.384765625 50.1669921875 69.1357421875 c 4,56,57
 52.2509765625 78.4609375 52.2509765625 78.4609375 60.666015625 85.265625 c 132,-1,58
 69.08203125 92.0703125 69.08203125 92.0703125 79.830078125 93.6123046875 c 4,39,40
EndSplineSet
EndChar

StartChar: T
Encoding: 84 84 22
Width: 483
GlyphClass: 1
Flags: W
HStem: 510 69<54.4512 213.451 280.451 446.451>
VStem: 212.451 68<2 510>
LayerCount: 2
Fore
SplineSet
423.383789062 551.9921875 m 2,0,1
 435.05859375 552.034179688 435.05859375 552.034179688 439.444335938 533.575195312 c 0,2,3
 444.06640625 515 444.06640625 515 439.444335938 496.643554688 c 0,4,5
 435.10546875 478.168945312 435.10546875 478.168945312 423.383789062 478.168945312 c 2,6,-1
 278.755859375 478.168945312 l 1,7,-1
 278.755859375 20.0625 l 2,8,9
 279.06640625 8 279.06640625 8 261.06640625 3 c 132,-1,10
 243.06640625 -2 243.06640625 -2 225.686523438 3 c 4,11,12
 207.99609375 8.01953125 207.99609375 8.01953125 207.99609375 20.0625 c 2,13,-1
 207.99609375 478.168945312 l 1,14,-1
 59.201171875 478.168945312 l 2,15,16
 48.06640625 478 48.06640625 478 43.423828125 496.282226562 c 0,17,18
 39.06640625 514 39.06640625 514 43.423828125 532.525390625 c 0,19,20
 47.9794921875 550.654296875 47.9794921875 550.654296875 59.201171875 550.694335938 c 2,21,-1
 423.383789062 551.9921875 l 2,0,1
EndSplineSet
EndChar

StartChar: U
Encoding: 85 85 23
Width: 521
GlyphClass: 1
Flags: W
LayerCount: 2
Fore
SplineSet
266.833984375 0 m 4,0,1
 214.229492188 -2.4443359375 214.229492188 -2.4443359375 166.819335938 24.9638671875 c 132,-1,2
 119.41015625 52.373046875 119.41015625 52.373046875 93.28515625 97.4541015625 c 4,3,4
 77.2490234375 123.528320312 77.2490234375 123.528320312 69.5419921875 159.388671875 c 132,-1,5
 61.8349609375 195.25 61.8349609375 195.25 61.09375 216.970703125 c 132,-1,6
 60.3525390625 238.69140625 60.3525390625 238.69140625 60.60546875 283.3828125 c 6,7,-1
 60.5087890625 527.390625 l 6,8,9
 60.50390625 541.509765625 60.50390625 541.509765625 80.609375 547.323242188 c 132,-1,10
 100.71484375 553.137695312 100.71484375 553.137695312 120.827148438 547.323242188 c 132,-1,11
 140.938476562 541.509765625 140.938476562 541.509765625 140.94921875 527.390625 c 6,12,-1
 141.1171875 302.106445312 l 5,13,-1
 381.606445312 302.61328125 l 5,14,-1
 382.407226562 527.390625 l 6,15,16
 382.456054688 541.09375 382.456054688 541.09375 402.05078125 546.73828125 c 132,-1,17
 421.64453125 552.3828125 421.64453125 552.3828125 441.150390625 546.73828125 c 132,-1,18
 460.655273438 541.092773438 460.655273438 541.092773438 460.489257812 527.390625 c 6,19,-1
 459.578125 189.586914062 l 6,20,21
 455.391601562 103.37890625 455.391601562 103.37890625 395.0546875 51.1357421875 c 4,22,23
 341.901367188 3.30078125 341.901367188 3.30078125 266.833984375 0 c 4,0,1
381.874023438 231.141601562 m 5,24,25
 262.163085938 231.142578125 262.163085938 231.142578125 142.451171875 231.142578125 c 5,26,27
 143.240234375 208.803710938 143.240234375 208.803710938 147.311523438 186.818359375 c 4,28,29
 158.134765625 125.270507812 158.134765625 125.270507812 192.96484375 95.66015625 c 4,30,31
 218.329101562 72.9892578125 218.329101562 72.9892578125 265.068359375 72.751953125 c 4,32,33
 310.9140625 71.85546875 310.9140625 71.85546875 343.162109375 110.51953125 c 4,34,35
 383.494140625 159.52734375 383.494140625 159.52734375 381.874023438 231.141601562 c 5,24,25
EndSplineSet
EndChar

StartChar: V
Encoding: 86 86 24
Width: 490
GlyphClass: 1
Flags: W
LayerCount: 2
Fore
SplineSet
444.0546875 502.760742188 m 6,0,-1
 291.711914062 22.353515625 l 6,1,2
 284.606445312 -0.0244140625 284.606445312 -0.0244140625 246.913085938 0 c 132,-1,3
 209.219726562 0.0244140625 209.219726562 0.0244140625 201.892578125 22.353515625 c 6,4,-1
 46.283203125 496.59375 l 6,5,6
 41.37109375 511.561523438 41.37109375 511.561523438 53.0029296875 530.137695312 c 132,-1,7
 64.634765625 548.712890625 64.634765625 548.712890625 79.462890625 548.853515625 c 6,8,-1
 200.6953125 550 l 5,9,-1
 404.857421875 549.958984375 l 6,10,11
 420.211914062 549.956054688 420.211914062 549.956054688 434.428710938 533.596679688 c 132,-1,12
 448.645507812 517.237304688 448.645507812 517.237304688 444.0546875 502.760742188 c 6,0,-1
361.774414062 474.4609375 m 5,13,14
 360.0078125 474.442382812 360.0078125 474.442382812 351.374023438 474.455078125 c 132,-1,15
 342.740234375 474.467773438 342.740234375 474.467773438 340.974609375 474.4609375 c 4,16,17
 321.967773438 474.743164062 321.967773438 474.743164062 283.265625 474.4453125 c 132,-1,18
 244.563476562 474.146484375 244.563476562 474.146484375 225.581054688 474.4609375 c 4,19,20
 188.879882812 474.07421875 188.879882812 474.07421875 175.471679688 474.4609375 c 4,21,22
 172.884765625 474.672851562 172.884765625 474.672851562 150.071289062 474.565429688 c 132,-1,23
 127.2578125 474.458007812 127.2578125 474.458007812 124.515625 474.4609375 c 5,24,25
 137.407226562 435.022460938 137.407226562 435.022460938 150.28515625 395.580078125 c 4,26,27
 155.53125 379.342773438 155.53125 379.342773438 189.65625 274.9921875 c 132,-1,28
 223.780273438 170.642578125 223.780273438 170.642578125 241.091796875 115.302734375 c 4,29,30
 243.977539062 98.6669921875 243.977539062 98.6669921875 248.571289062 117.462890625 c 4,31,32
 282.874023438 222.619140625 282.874023438 222.619140625 361.774414062 474.4609375 c 5,13,14
EndSplineSet
EndChar

StartChar: W
Encoding: 87 87 25
Width: 500
GlyphClass: 1
Flags: W
LayerCount: 2
Fore
SplineSet
384.951171875 13.9921875 m 6,0,1
 383.088867188 -0.2587890625 383.088867188 -0.2587890625 356.76171875 0.02734375 c 132,-1,2
 330.43359375 0.3125 330.43359375 0.3125 324.970703125 13.9921875 c 6,3,-1
 247.147460938 217.38671875 l 5,4,-1
 170.0234375 13.9921875 l 6,5,6
 164.81640625 0.26171875 164.81640625 0.26171875 138.826171875 0 c 132,-1,7
 112.8359375 -0.2607421875 112.8359375 -0.2607421875 111.09375 13.9921875 c 6,8,-1
 50.0634765625 535.33984375 l 6,9,10
 48.9833984375 544.569335938 48.9833984375 544.569335938 63.52734375 548.368164062 c 132,-1,11
 78.072265625 552.16796875 78.072265625 552.16796875 93.51171875 548.368164062 c 132,-1,12
 108.951171875 544.567382812 108.951171875 544.567382812 110.043945312 535.33984375 c 6,13,-1
 154.836914062 161.54296875 l 5,14,-1
 204.311523438 289.420898438 l 6,15,16
 211.701171875 308.49609375 211.701171875 308.49609375 247.0625 308.4765625 c 132,-1,17
 282.423828125 308.456054688 282.423828125 308.456054688 289.983398438 289.420898438 c 6,18,-1
 340.758789062 161.54296875 l 5,19,-1
 389.94921875 535.33984375 l 6,20,21
 391.161132812 544.5546875 391.161132812 544.5546875 406.622070312 548.3515625 c 132,-1,22
 422.08203125 552.1484375 422.08203125 552.1484375 436.575195312 548.35546875 c 132,-1,23
 451.067382812 544.563476562 451.067382812 544.563476562 449.928710938 535.33984375 c 6,24,-1
 384.951171875 13.9921875 l 6,0,1
EndSplineSet
EndChar

StartChar: X
Encoding: 88 88 26
Width: 1000
GlyphClass: 1
LayerCount: 2
Fore
SplineSet
377.559570312 550.099609375 m 0,0,1
 402.681640625 550.7109375 402.681640625 550.7109375 421.329101562 538.385742188 c 128,-1,2
 439.9765625 526.060546875 439.9765625 526.060546875 435.8671875 506.5234375 c 0,3,4
 434.087890625 495.680664062 434.087890625 495.680664062 426.424804688 488.796875 c 128,-1,5
 418.76171875 481.913085938 418.76171875 481.913085938 406.1796875 474.673828125 c 128,-1,6
 393.596679688 467.434570312 393.596679688 467.434570312 386.471679688 460.25 c 1,7,8
 387.001953125 447.67578125 387.001953125 447.67578125 405.875 430.052734375 c 128,-1,9
 424.747070312 412.4296875 424.747070312 412.4296875 456.087890625 389.268554688 c 128,-1,10
 487.4296875 366.107421875 487.4296875 366.107421875 499.998046875 354.443359375 c 1,11,12
 499.998046875 341.223632812 499.998046875 341.223632812 499.999023438 314.784179688 c 128,-1,13
 499.999023438 288.345703125 499.999023438 288.345703125 500 275.125976562 c 1,14,-1
 451.99609375 275.124023438 l 1,15,-1
 500 275.122070312 l 1,16,17
 499.999023438 261.90234375 499.999023438 261.90234375 499.999023438 235.462890625 c 128,-1,18
 499.998046875 209.0234375 499.998046875 209.0234375 499.998046875 195.8046875 c 1,19,20
 487.4296875 184.140625 487.4296875 184.140625 456.087890625 160.979492188 c 128,-1,21
 424.747070312 137.818359375 424.747070312 137.818359375 405.875 120.1953125 c 128,-1,22
 387.001953125 102.572265625 387.001953125 102.572265625 386.471679688 89.998046875 c 1,23,24
 391.107421875 85.3232421875 391.107421875 85.3232421875 412.310546875 71.6962890625 c 128,-1,25
 433.513671875 58.0693359375 433.513671875 58.0693359375 435.8671875 43.724609375 c 0,26,27
 440.959960938 19.513671875 440.959960938 19.513671875 412.66796875 7 c 128,-1,28
 384.375976562 -5.513671875 384.375976562 -5.513671875 356.888671875 3.5615234375 c 0,29,30
 353.255859375 5.646484375 353.255859375 5.646484375 336.33203125 14.388671875 c 128,-1,31
 319.407226562 23.130859375 319.407226562 23.130859375 312.053710938 28.3447265625 c 128,-1,32
 304.69921875 33.55859375 304.69921875 33.55859375 293.442382812 43.5244140625 c 128,-1,33
 282.184570312 53.490234375 282.184570312 53.490234375 278.060546875 65.765625 c 128,-1,34
 273.935546875 78.0419921875 273.935546875 78.0419921875 275.295898438 93.1650390625 c 0,35,36
 276.520507812 107.084960938 276.520507812 107.084960938 301.060546875 136.38671875 c 128,-1,37
 325.599609375 165.688476562 325.599609375 165.688476562 372.021484375 212.991210938 c 128,-1,38
 418.443359375 260.293945312 418.443359375 260.293945312 431.908203125 275.124023438 c 1,39,40
 418.439453125 289.958007812 418.439453125 289.958007812 372.020507812 337.2578125 c 128,-1,41
 325.600585938 384.557617188 325.600585938 384.557617188 301.060546875 413.859375 c 128,-1,42
 276.520507812 443.162109375 276.520507812 443.162109375 275.295898438 457.08203125 c 0,43,44
 273.935546875 472.205078125 273.935546875 472.205078125 278.059570312 484.48046875 c 128,-1,45
 282.184570312 496.756835938 282.184570312 496.756835938 293.442382812 506.72265625 c 128,-1,46
 304.700195312 516.688476562 304.700195312 516.688476562 312.053710938 521.90234375 c 128,-1,47
 319.407226562 527.116210938 319.407226562 527.116210938 336.33203125 535.858398438 c 128,-1,48
 353.256835938 544.6015625 353.256835938 544.6015625 356.888671875 546.686523438 c 0,49,50
 366.403320312 549.827148438 366.403320312 549.827148438 377.559570312 550.099609375 c 0,0,1
622.440429688 550.099609375 m 0,51,52
 633.596679688 549.827148438 633.596679688 549.827148438 643.111328125 546.686523438 c 0,53,54
 646.743164062 544.6015625 646.743164062 544.6015625 663.66796875 535.858398438 c 128,-1,55
 680.592773438 527.116210938 680.592773438 527.116210938 687.946289062 521.90234375 c 128,-1,56
 695.299804688 516.688476562 695.299804688 516.688476562 706.557617188 506.72265625 c 128,-1,57
 717.815429688 496.756835938 717.815429688 496.756835938 721.939453125 484.48046875 c 128,-1,58
 726.064453125 472.205078125 726.064453125 472.205078125 724.704101562 457.08203125 c 0,59,60
 723.478515625 443.162109375 723.478515625 443.162109375 698.938476562 413.859375 c 128,-1,61
 674.3984375 384.557617188 674.3984375 384.557617188 627.979492188 337.2578125 c 128,-1,62
 581.559570312 289.958007812 581.559570312 289.958007812 568.091796875 275.124023438 c 1,63,64
 581.556640625 260.293945312 581.556640625 260.293945312 627.978515625 212.991210938 c 128,-1,65
 674.400390625 165.688476562 674.400390625 165.688476562 698.939453125 136.38671875 c 128,-1,66
 723.478515625 107.084960938 723.478515625 107.084960938 724.704101562 93.1650390625 c 0,67,68
 726.064453125 78.0419921875 726.064453125 78.0419921875 721.939453125 65.765625 c 128,-1,69
 717.815429688 53.490234375 717.815429688 53.490234375 706.557617188 43.5244140625 c 128,-1,70
 695.299804688 33.55859375 695.299804688 33.55859375 687.946289062 28.3447265625 c 128,-1,71
 680.591796875 23.130859375 680.591796875 23.130859375 663.66796875 14.388671875 c 128,-1,72
 646.744140625 5.646484375 646.744140625 5.646484375 643.111328125 3.5615234375 c 0,73,74
 615.624023438 -5.513671875 615.624023438 -5.513671875 587.33203125 7 c 128,-1,75
 559.040039062 19.513671875 559.040039062 19.513671875 564.1328125 43.724609375 c 0,76,77
 565.911132812 54.56640625 565.911132812 54.56640625 573.575195312 61.4501953125 c 128,-1,78
 581.23828125 68.333984375 581.23828125 68.333984375 593.8203125 75.5732421875 c 128,-1,79
 606.403320312 82.8134765625 606.403320312 82.8134765625 613.528320312 89.998046875 c 1,80,81
 612.998046875 102.572265625 612.998046875 102.572265625 594.125 120.1953125 c 128,-1,82
 575.251953125 137.818359375 575.251953125 137.818359375 543.911132812 160.979492188 c 128,-1,83
 512.5703125 184.140625 512.5703125 184.140625 500.001953125 195.8046875 c 1,84,85
 500.000976562 209.0234375 500.000976562 209.0234375 500.000976562 235.462890625 c 128,-1,86
 500 261.90234375 500 261.90234375 500 275.122070312 c 1,87,-1
 548.00390625 275.124023438 l 1,88,-1
 500 275.125976562 l 1,89,90
 500 288.345703125 500 288.345703125 500.000976562 314.784179688 c 128,-1,91
 500.000976562 341.223632812 500.000976562 341.223632812 500.001953125 354.443359375 c 1,92,93
 512.5703125 366.107421875 512.5703125 366.107421875 543.911132812 389.268554688 c 128,-1,94
 575.251953125 412.4296875 575.251953125 412.4296875 594.125 430.052734375 c 128,-1,95
 612.998046875 447.67578125 612.998046875 447.67578125 613.528320312 460.25 c 1,96,97
 608.891601562 464.924804688 608.891601562 464.924804688 587.689453125 478.551757812 c 128,-1,98
 566.486328125 492.178710938 566.486328125 492.178710938 564.1328125 506.5234375 c 0,99,100
 560.022460938 526.060546875 560.022460938 526.060546875 578.670898438 538.385742188 c 128,-1,101
 597.318359375 550.7109375 597.318359375 550.7109375 622.440429688 550.099609375 c 0,51,52
EndSplineSet
EndChar

StartChar: Y
Encoding: 89 89 27
Width: 489
GlyphClass: 1
Flags: W
LayerCount: 2
Fore
SplineSet
400.80859375 546.947265625 m 6,0,1
 409.423828125 560.287109375 409.423828125 560.287109375 429.825195312 536.192382812 c 4,2,3
 450.794921875 511.428710938 450.794921875 511.428710938 442.440429688 497.403320312 c 6,4,-1
 281.702148438 227.560546875 l 5,5,-1
 281.702148438 20.1083984375 l 6,6,7
 281.702148438 7.9892578125 281.702148438 7.9892578125 261.741210938 3 c 132,-1,8
 241.780273438 -1.990234375 241.780273438 -1.990234375 221.818359375 3 c 132,-1,9
 201.857421875 7.9892578125 201.857421875 7.9892578125 201.857421875 20.1083984375 c 6,10,-1
 201.857421875 227.090820312 l 5,11,-1
 45.859375 494.888671875 l 6,12,13
 40.7900390625 503.591796875 40.7900390625 503.591796875 51.017578125 518.329101562 c 132,-1,14
 61.244140625 533.067382812 61.244140625 533.067382812 73.9814453125 539.122070312 c 132,-1,15
 86.71875 545.176757812 86.71875 545.176757812 93.810546875 538.215820312 c 6,16,-1
 241.779296875 300.723632812 l 5,17,-1
 400.80859375 546.947265625 l 6,0,1
EndSplineSet
EndChar

StartChar: Z
Encoding: 90 90 28
Width: 495
GlyphClass: 1
Flags: W
LayerCount: 2
Fore
SplineSet
430.965820312 0.419921875 m 2,0,-1
 101.697265625 0.419921875 l 2,1,2
 82.7265625 0.419921875 82.7265625 0.419921875 67.7626953125 29.587890625 c 128,-1,3
 52.7998046875 58.755859375 52.7998046875 58.755859375 63.8740234375 76.0927734375 c 2,4,-1
 357.2265625 472.965820312 l 1,5,-1
 63.8740234375 473.48828125 l 2,6,7
 53.5302734375 473.506835938 53.5302734375 473.506835938 49.2724609375 492.739257812 c 128,-1,8
 45.013671875 511.971679688 45.013671875 511.971679688 49.2724609375 531.196289062 c 128,-1,9
 53.5302734375 550.419921875 53.5302734375 550.419921875 63.8740234375 550.419921875 c 2,10,-1
 407.176757812 550.404296875 l 2,11,12
 423.3203125 550.40234375 423.3203125 550.40234375 438.529296875 528.213867188 c 128,-1,13
 453.73828125 506.025390625 453.73828125 506.025390625 444.149414062 492.419921875 c 2,14,-1
 149.248046875 74 l 1,15,-1
 430.965820312 73.2158203125 l 2,16,17
 440.752929688 73.1884765625 440.752929688 73.1884765625 444.782226562 54.9912109375 c 128,-1,18
 448.811523438 36.79296875 448.811523438 36.79296875 444.782226562 18.6064453125 c 128,-1,19
 440.752929688 0.419921875 440.752929688 0.419921875 430.965820312 0.419921875 c 2,0,-1
EndSplineSet
EndChar

StartChar: a
Encoding: 97 97 35
Width: 567
GlyphClass: 1
Flags: W
LayerCount: 2
Fore
SplineSet
507.4921875 35.453125 m 2,0,1
 511.399414062 24.544921875 511.399414062 24.544921875 495.583007812 13.0751953125 c 128,-1,2
 479.766601562 1.60546875 479.766601562 1.60546875 462.9921875 0 c 128,-1,3
 446.21875 -1.6064453125 446.21875 -1.6064453125 439.227539062 8.072265625 c 2,4,-1
 400.567382812 99.857421875 l 1,5,-1
 147.3125 100.120117188 l 1,6,7
 136.3515625 81.76953125 136.3515625 81.76953125 121.520507812 73.609375 c 128,-1,8
 106.690429688 65.44921875 106.690429688 65.44921875 94.25 68.3720703125 c 128,-1,9
 81.80859375 71.294921875 81.80859375 71.294921875 71.4833984375 80.05078125 c 128,-1,10
 61.1572265625 88.806640625 61.1572265625 88.806640625 59.205078125 104.288085938 c 128,-1,11
 57.251953125 119.76953125 57.251953125 119.76953125 63.3984375 136.725585938 c 2,12,-1
 228.934570312 539.376953125 l 2,13,14
 238.288085938 562.127929688 238.288085938 562.127929688 278.494140625 562.25390625 c 128,-1,15
 318.700195312 562.379882812 318.700195312 562.379882812 326.998046875 539.376953125 c 2,16,-1
 507.4921875 35.453125 l 2,0,1
330.618164062 320.987304688 m 1,17,-1
 283.921875 472.911132812 l 2,18,19
 282.549804688 477.374023438 282.549804688 477.374023438 274.583007812 477.374023438 c 128,-1,20
 266.615234375 477.374023438 266.615234375 477.374023438 265.243164062 472.911132812 c 2,21,22
 265.243164062 472.911132812 265.243164062 472.911132812 218.545898438 320.987304688 c 1,23,-1
 330.618164062 320.987304688 l 1,17,-1
198.116210938 254.521484375 m 1,24,-1
 174.767578125 178.559570312 l 1,25,-1
 374.396484375 178.559570312 l 1,26,-1
 351.048828125 254.521484375 l 1,27,-1
 198.116210938 254.521484375 l 1,24,-1
EndSplineSet
EndChar

StartChar: b
Encoding: 98 98 36
Width: 530
GlyphClass: 1
Flags: W
LayerCount: 2
Fore
SplineSet
201.591796875 1.85546875 m 4,0,1
 137.970703125 1.259765625 137.970703125 1.259765625 64.9140625 8 c 5,2,-1
 64.9140625 442.975585938 l 6,3,4
 64.9140625 454.698242188 64.9140625 454.698242188 83.89453125 459.525390625 c 132,-1,5
 102.875 464.352539062 102.875 464.352539062 121.85546875 459.525390625 c 132,-1,6
 140.8359375 454.698242188 140.8359375 454.698242188 140.8359375 442.975585938 c 6,7,-1
 140.8359375 323.938476562 l 5,8,9
 185.588867188 319.278320312 185.588867188 319.278320312 242.107421875 323.840820312 c 132,-1,10
 298.625976562 328.40234375 298.625976562 328.40234375 338.484375 348.245117188 c 4,11,12
 366.96875 364.083984375 366.96875 364.083984375 370.147460938 396.487304688 c 132,-1,13
 373.325195312 428.891601562 373.325195312 428.891601562 349.912109375 449.873046875 c 4,14,15
 330.755859375 469.731445312 330.755859375 469.731445312 284.649414062 483.013671875 c 4,16,17
 268.306640625 487.721679688 268.306640625 487.721679688 261.356445312 503.416992188 c 132,-1,18
 254.40625 519.112304688 254.40625 519.112304688 260.81640625 533.908203125 c 132,-1,19
 267.2265625 548.704101562 267.2265625 548.704101562 284.649414062 550.995117188 c 4,20,21
 299.53515625 552.952148438 299.53515625 552.952148438 317.966796875 549.454101562 c 132,-1,22
 336.397460938 545.956054688 336.397460938 545.956054688 345.461914062 542.700195312 c 132,-1,23
 354.526367188 539.443359375 354.526367188 539.443359375 376.712890625 530.802734375 c 4,24,25
 414.659179688 513.95703125 414.659179688 513.95703125 438.38671875 481.900390625 c 132,-1,26
 462.114257812 449.84375 462.114257812 449.84375 461.461914062 413.278320312 c 4,27,28
 462.821289062 376.307617188 462.821289062 376.307617188 443.712890625 342.96875 c 132,-1,29
 424.603515625 309.630859375 424.603515625 309.630859375 389.125 293.314453125 c 4,30,31
 386.666992188 291.974609375 386.666992188 291.974609375 376.860351562 288.717773438 c 4,32,33
 359.241210938 282.865234375 359.241210938 282.865234375 358.540039062 280.213867188 c 132,-1,34
 357.809570312 277.454101562 357.809570312 277.454101562 369.836914062 275.831054688 c 4,35,36
 417.43359375 262.045898438 417.43359375 262.045898438 444.615234375 221.524414062 c 132,-1,37
 471.796875 181.002929688 471.796875 181.002929688 462.884765625 137.356445312 c 4,38,39
 457.223632812 96.9306640625 457.223632812 96.9306640625 425.95703125 64.5703125 c 132,-1,40
 394.69140625 32.2109375 394.69140625 32.2109375 350.315429688 19.369140625 c 4,41,42
 342.580078125 16.83203125 342.580078125 16.83203125 334.751953125 14.7392578125 c 132,-1,43
 326.923828125 12.646484375 326.923828125 12.646484375 317.772460938 11.056640625 c 132,-1,44
 308.62109375 9.466796875 308.62109375 9.466796875 302.150390625 8.291015625 c 132,-1,45
 295.6796875 7.115234375 295.6796875 7.115234375 284.810546875 6.1845703125 c 132,-1,46
 273.94140625 5.25390625 273.94140625 5.25390625 268.91796875 4.72265625 c 132,-1,47
 263.893554688 4.19140625 263.893554688 4.19140625 251.396484375 3.6484375 c 132,-1,48
 238.8984375 3.1044921875 238.8984375 3.1044921875 235.41015625 2.9453125 c 132,-1,49
 231.921875 2.787109375 231.921875 2.787109375 217.883789062 2.3583984375 c 132,-1,50
 203.846679688 1.9287109375 203.846679688 1.9287109375 201.591796875 1.85546875 c 4,0,1
283.469726562 232.193359375 m 4,51,52
 236.4296875 241.583984375 236.4296875 241.583984375 150.4140625 236.888671875 c 5,53,54
 150.4140625 236.888671875 150.4140625 236.888671875 150.4140625 75.5029296875 c 5,55,56
 231.534179688 66.7294921875 231.534179688 66.7294921875 294.423828125 79.7177734375 c 4,57,58
 347.823242188 91.90625 347.823242188 91.90625 365.176757812 121.626953125 c 4,59,60
 375.791015625 139.692382812 375.791015625 139.692382812 373.130859375 162.095703125 c 132,-1,61
 370.470703125 184.499023438 370.470703125 184.499023438 354.424804688 199.361328125 c 4,62,63
 331.842773438 222.498046875 331.842773438 222.498046875 283.469726562 232.193359375 c 4,51,52
EndSplineSet
EndChar

StartChar: c
Encoding: 99 99 37
Width: 564
GlyphClass: 1
Flags: W
LayerCount: 2
Fore
SplineSet
190.409179688 408.965820312 m 5,0,1
 154.056640625 359.879882812 154.056640625 359.879882812 147.389648438 302.87109375 c 132,-1,2
 140.723632812 245.862304688 140.723632812 245.862304688 160.19921875 198.64453125 c 132,-1,3
 179.67578125 151.427734375 179.67578125 151.427734375 223.6328125 117.173828125 c 132,-1,4
 267.58984375 82.919921875 267.58984375 82.919921875 326.106445312 76.365234375 c 4,5,6
 344.142578125 75.9765625 344.142578125 75.9765625 351.762695312 56.9052734375 c 132,-1,7
 359.381835938 37.8330078125 359.381835938 37.8330078125 351.98828125 18.9189453125 c 132,-1,8
 344.59375 0.00390625 344.59375 0.00390625 326.106445312 0 c 4,9,10
 264.918945312 2.94921875 264.918945312 2.94921875 215.276367188 23.7021484375 c 132,-1,11
 165.6328125 44.455078125 165.6328125 44.455078125 133.952148438 77.84765625 c 132,-1,12
 102.271484375 111.240234375 102.271484375 111.240234375 81.7001953125 155.174804688 c 132,-1,13
 61.12890625 199.110351562 61.12890625 199.110351562 58.0849609375 248.423828125 c 132,-1,14
 55.041015625 297.737304688 55.041015625 297.737304688 62.671875 350.333007812 c 4,15,16
 74.1259765625 415.21875 74.1259765625 415.21875 120.444335938 467.168945312 c 132,-1,17
 166.762695312 519.118164062 166.762695312 519.118164062 232.6875 537.072265625 c 4,18,19
 297.127929688 556.390625 297.127929688 556.390625 366.8125 547.09375 c 132,-1,20
 436.497070312 537.796875 436.497070312 537.796875 492.3828125 502.048828125 c 4,21,22
 505.686523438 493.03125 505.686523438 493.03125 506.700195312 476.900390625 c 132,-1,23
 507.713867188 460.76953125 507.713867188 460.76953125 496.32421875 449.486328125 c 132,-1,24
 484.934570312 438.203125 484.934570312 438.203125 466.977539062 441.703125 c 4,25,26
 414.703125 458.245117188 414.703125 458.245117188 367.364257812 463.842773438 c 132,-1,27
 320.026367188 469.440429688 320.026367188 469.440429688 270.106445312 457.010742188 c 132,-1,28
 220.185546875 444.581054688 220.185546875 444.581054688 190.409179688 408.965820312 c 5,0,1
EndSplineSet
EndChar

StartChar: d
Encoding: 100 100 38
Width: 513
GlyphClass: 1
Flags: W
LayerCount: 2
Fore
SplineSet
57.2216796875 10.513671875 m 5,0,1
 56.05859375 63.1474609375 56.05859375 63.1474609375 56.6943359375 272.39453125 c 132,-1,2
 57.3291015625 481.641601562 57.3291015625 481.641601562 57.2216796875 534.27734375 c 5,3,4
 165.368164062 566.00390625 165.368164062 566.00390625 278.948242188 532.897460938 c 4,5,6
 362.51171875 508.540039062 362.51171875 508.540039062 412.275390625 427.853515625 c 4,7,8
 451.188476562 364.759765625 451.188476562 364.759765625 455.919921875 289.13671875 c 132,-1,9
 460.651367188 213.512695312 460.651367188 213.512695312 428.73046875 146.38671875 c 4,10,11
 403.205078125 93.654296875 403.205078125 93.654296875 358.727539062 56.5205078125 c 132,-1,12
 314.25 19.38671875 314.25 19.38671875 259.6875 10 c 4,13,14
 138.744140625 -10.806640625 138.744140625 -10.806640625 57.2216796875 10.513671875 c 5,0,1
298.391601562 438.928710938 m 4,15,16
 280.087890625 451.512695312 280.087890625 451.512695312 249.822265625 458.395507812 c 132,-1,17
 219.557617188 465.279296875 219.557617188 465.279296875 196.864257812 466.696289062 c 132,-1,18
 174.170898438 468.11328125 174.170898438 468.11328125 137.596679688 468.678710938 c 5,19,20
 137.41015625 439.98046875 137.41015625 439.98046875 137.708984375 325.591796875 c 5,21,22
 137.708984375 325.591796875 137.708984375 325.591796875 255.158203125 326.435546875 c 6,23,24
 274.365234375 326.573242188 274.365234375 326.573242188 286.401367188 310.203125 c 132,-1,25
 298.4375 293.833007812 298.4375 293.833007812 292.366210938 275.481445312 c 4,26,27
 283.688476562 249.252929688 283.688476562 249.252929688 244.396484375 249 c 6,28,29
 244.396484375 249 244.396484375 249 137.708984375 248.30859375 c 5,30,-1
 137.708984375 80.345703125 l 5,31,-1
 173.41015625 80.5419921875 l 6,32,33
 209.111328125 80.7392578125 209.111328125 80.7392578125 251.908203125 85.9970703125 c 132,-1,34
 294.706054688 91.2548828125 294.706054688 91.2548828125 308.8984375 101.376953125 c 4,35,36
 346.48828125 128.1875 346.48828125 128.1875 363.548828125 178.369140625 c 132,-1,37
 380.609375 228.55078125 380.609375 228.55078125 378.551757812 282.631835938 c 4,38,39
 376.768554688 329.536132812 376.768554688 329.536132812 355.873046875 371.657226562 c 132,-1,40
 334.9765625 413.779296875 334.9765625 413.779296875 298.391601562 438.928710938 c 4,15,16
EndSplineSet
EndChar

StartChar: e
Encoding: 101 101 39
Width: 515
GlyphClass: 1
Flags: W
LayerCount: 2
Fore
SplineSet
100.857421875 549.888671875 m 6,0,-1
 436.689453125 549.124023438 l 6,1,2
 449.182617188 549.095703125 449.182617188 549.095703125 454.327148438 529.282226562 c 132,-1,3
 459.470703125 509.469726562 459.470703125 509.469726562 454.327148438 489.66796875 c 132,-1,4
 449.182617188 469.8671875 449.182617188 469.8671875 436.689453125 469.8671875 c 6,5,-1
 141.616210938 469.8671875 l 5,6,-1
 141.616210938 435.842773438 l 5,7,-1
 320.767578125 435.842773438 l 6,8,9
 333.555664062 435.842773438 333.555664062 435.842773438 338.822265625 415.837890625 c 132,-1,10
 344.087890625 395.83203125 344.087890625 395.83203125 338.822265625 375.826171875 c 132,-1,11
 333.555664062 355.821289062 333.555664062 355.821289062 320.767578125 355.821289062 c 6,12,-1
 141.616210938 355.821289062 l 5,13,-1
 141.616210938 315.810546875 l 5,14,-1
 436.689453125 315.810546875 l 6,15,16
 449.671875 315.810546875 449.671875 315.810546875 455.017578125 295.805664062 c 132,-1,17
 460.36328125 275.80078125 460.36328125 275.80078125 455.017578125 255.794921875 c 132,-1,18
 449.671875 235.790039062 449.671875 235.790039062 436.689453125 235.790039062 c 6,19,-1
 141.616210938 235.790039062 l 5,20,-1
 141.616210938 79.91015625 l 5,21,-1
 436.689453125 79.91015625 l 6,22,23
 449.390625 79.91015625 449.390625 79.91015625 454.62109375 59.9033203125 c 132,-1,24
 459.850585938 39.8955078125 459.850585938 39.8955078125 454.62109375 19.8896484375 c 132,-1,25
 449.390625 -0.115234375 449.390625 -0.115234375 436.689453125 -0.111328125 c 6,26,27
 436.689453125 -0.111328125 436.689453125 -0.111328125 100.221679688 0 c 4,28,29
 82.541015625 0.005859375 82.541015625 0.005859375 69.9248046875 14.09765625 c 132,-1,30
 57.3095703125 28.1884765625 57.3095703125 28.1884765625 57.3095703125 44.1669921875 c 6,31,-1
 57.3095703125 504.510742188 l 6,32,33
 57.3095703125 521.9921875 57.3095703125 521.9921875 69.5498046875 535.961914062 c 132,-1,34
 81.791015625 549.931640625 81.791015625 549.931640625 100.857421875 549.888671875 c 6,0,-1
EndSplineSet
EndChar

StartChar: f
Encoding: 102 102 40
Width: 506
GlyphClass: 1
Flags: W
LayerCount: 2
Fore
SplineSet
153.96875 23.623046875 m 6,0,1
 153.96875 9.0146484375 153.96875 9.0146484375 128.755859375 3 c 132,-1,2
 103.54296875 -3.0146484375 103.54296875 -3.0146484375 78.326171875 3 c 132,-1,3
 53.109375 9.0146484375 53.109375 9.0146484375 53.1015625 23.623046875 c 6,4,-1
 52.818359375 515.275390625 l 6,5,6
 52.8095703125 530.396484375 52.8095703125 530.396484375 70.4775390625 540.54296875 c 132,-1,7
 88.1455078125 550.689453125 88.1455078125 550.689453125 110.084960938 550.689453125 c 6,8,-1
 433.202148438 550.689453125 l 6,9,10
 445.553710938 550.689453125 445.553710938 550.689453125 450.638671875 532.64453125 c 132,-1,11
 455.724609375 514.600585938 455.724609375 514.600585938 450.638671875 496.552734375 c 132,-1,12
 445.553710938 478.505859375 445.553710938 478.505859375 433.202148438 478.498046875 c 6,13,-1
 153.96875 478.337890625 l 5,14,-1
 153.96875 445.962890625 l 5,15,-1
 315.733398438 445.608398438 l 6,16,17
 328.21875 445.581054688 328.21875 445.581054688 333.357421875 427.366210938 c 132,-1,18
 338.497070312 409.151367188 338.497070312 409.151367188 333.357421875 390.924804688 c 132,-1,19
 328.21875 372.698242188 328.21875 372.698242188 315.733398438 372.640625 c 6,20,-1
 153.96875 371.905273438 l 5,21,-1
 153.96875 329.708984375 l 5,22,-1
 352.963867188 329.463867188 l 6,23,24
 365.727539062 329.448242188 365.727539062 329.448242188 370.982421875 310.803710938 c 132,-1,25
 376.237304688 292.159179688 376.237304688 292.159179688 370.982421875 273.516601562 c 132,-1,26
 365.727539062 254.873046875 365.727539062 254.873046875 352.963867188 254.860351562 c 6,27,-1
 153.96875 254.659179688 l 5,28,-1
 153.96875 23.623046875 l 6,0,1
EndSplineSet
EndChar

StartChar: g
Encoding: 103 103 41
Width: 604
GlyphClass: 1
Flags: W
LayerCount: 2
Fore
SplineSet
523.89453125 497.583007812 m 4,0,1
 531.9296875 482.861328125 531.9296875 482.861328125 522.491210938 463.420898438 c 4,2,3
 515.994140625 453 515.994140625 453 502.690429688 449.293945312 c 132,-1,4
 489.38671875 445.587890625 489.38671875 445.587890625 477.658203125 449.813476562 c 4,5,6
 436.6953125 467.276367188 436.6953125 467.276367188 399.24609375 470.908203125 c 132,-1,7
 361.796875 474.540039062 361.796875 474.540039062 307.87890625 472.224609375 c 4,8,9
 290.513671875 472.463867188 290.513671875 472.463867188 277.794921875 485.609375 c 132,-1,10
 265.076171875 498.75390625 265.076171875 498.75390625 267.133789062 515.166992188 c 5,11,12
 281.307617188 545.140625 281.307617188 545.140625 336.546875 549.76953125 c 132,-1,13
 391.786132812 554.399414062 391.786132812 554.399414062 447.790039062 538.114257812 c 132,-1,14
 503.793945312 521.828125 503.793945312 521.828125 523.89453125 497.583007812 c 4,0,1
169.357421875 288.079101562 m 4,15,16
 163.515625 200.4765625 163.515625 200.4765625 206.080078125 151.859375 c 4,17,18
 265.697265625 81.8037109375 265.697265625 81.8037109375 442.041015625 86.3857421875 c 5,19,-1
 442.041015625 213.077148438 l 5,20,-1
 355.397460938 214.546875 l 6,21,22
 336.5390625 216.4453125 336.5390625 216.4453125 327.224609375 233.510742188 c 132,-1,23
 317.911132812 250.577148438 317.911132812 250.577148438 328.016601562 266.124023438 c 4,24,25
 338.829101562 284.575195312 338.829101562 284.575195312 380.129882812 283.034179688 c 6,26,-1
 523.653320312 282.877929688 l 5,27,-1
 523.653320312 223.640625 l 5,28,-1
 522.198242188 45.7138671875 l 5,29,30
 493.005859375 16.279296875 493.005859375 16.279296875 438.638671875 6.587890625 c 132,-1,31
 384.271484375 -3.103515625 384.271484375 -3.103515625 336.958984375 2 c 132,-1,32
 289.646484375 7.103515625 289.646484375 7.103515625 250.729492188 19.048828125 c 4,33,34
 154.010742188 51.1376953125 154.010742188 51.1376953125 111.111328125 129.874023438 c 4,35,36
 57.4921875 227.172851562 57.4921875 227.172851562 86.724609375 359.248046875 c 5,37,38
 99.376953125 382.356445312 99.376953125 382.356445312 122.540039062 385.965820312 c 132,-1,39
 145.703125 389.57421875 145.703125 389.57421875 162.077148438 373.794921875 c 132,-1,40
 178.451171875 358.015625 178.451171875 358.015625 174.01953125 332.344726562 c 4,41,42
 173.90234375 325.489257812 173.90234375 325.489257812 171.565429688 310.704101562 c 132,-1,43
 169.227539062 295.919921875 169.227539062 295.919921875 169.357421875 288.079101562 c 4,15,16
EndSplineSet
EndChar

StartChar: h
Encoding: 104 104 42
Width: 525
GlyphClass: 1
Flags: W
HStem: 126 62<215.805 392.805> 236 65<215.805 455.805>
VStem: 136.805 79<2 126 189 236 301 533> 456.805 79<17 236 301 544>
LayerCount: 2
Fore
SplineSet
63.8515625 17.421875 m 6,0,-1
 62.5 526.4296875 l 6,1,2
 62.4658203125 539.333984375 62.4658203125 539.333984375 82.2177734375 544.647460938 c 132,-1,3
 101.96875 549.961914062 101.96875 549.961914062 121.73828125 544.647460938 c 132,-1,4
 141.5078125 539.333984375 141.5078125 539.333984375 141.516601562 526.4296875 c 6,5,-1
 141.673828125 307.857421875 l 5,6,-1
 383.248046875 307.359375 l 5,7,-1
 383.518554688 526.4296875 l 6,8,9
 383.53515625 539.328125 383.53515625 539.328125 403.280273438 544.639648438 c 132,-1,10
 423.025390625 549.950195312 423.025390625 549.950195312 442.763671875 544.639648438 c 132,-1,11
 462.501953125 539.328125 462.501953125 539.328125 462.5 526.4296875 c 6,12,-1
 462.421875 17.421875 l 6,13,14
 462.419921875 4.5146484375 462.419921875 4.5146484375 442.696289062 -0.7978515625 c 132,-1,15
 422.97265625 -6.1103515625 422.97265625 -6.1103515625 403.219726562 -0.7978515625 c 132,-1,16
 383.467773438 4.515625 383.467773438 4.515625 383.396484375 17.421875 c 6,17,-1
 382.16796875 240.110351562 l 5,18,-1
 141.673828125 240.608398438 l 5,19,-1
 141.673828125 191.291992188 l 5,20,-1
 298.940429688 191.04296875 l 6,21,22
 308.7421875 191.02734375 308.7421875 191.02734375 312.77734375 174.876953125 c 132,-1,23
 316.813476562 158.727539062 316.813476562 158.727539062 312.77734375 142.583984375 c 132,-1,24
 308.7421875 126.440429688 308.7421875 126.440429688 298.940429688 126.440429688 c 6,25,-1
 141.689453125 126.440429688 l 5,26,-1
 139.428710938 17.421875 l 6,27,28
 139.172851562 5.078125 139.172851562 5.078125 120.3046875 0 c 132,-1,29
 101.4375 -5.078125 101.4375 -5.078125 82.6611328125 -0.0009765625 c 132,-1,30
 63.884765625 5.0751953125 63.884765625 5.0751953125 63.8515625 17.421875 c 6,0,-1
EndSplineSet
EndChar

StartChar: i
Encoding: 105 105 43
Width: 241
GlyphClass: 1
Flags: W
LayerCount: 2
Fore
SplineSet
136.213867188 0 m 0,0,1
 133.213867188 0 133.213867188 0 124.713867188 0 c 128,-1,2
 116.213867188 0 116.213867188 0 111.713867188 0 c 128,-1,3
 107.213867188 0 107.213867188 0 101.213867188 1.5 c 128,-1,4
 95.2138671875 3 95.2138671875 3 90.2138671875 6 c 0,5,6
 59.2138671875 20 59.2138671875 20 62.2138671875 56 c 0,7,8
 62.2138671875 84 62.2138671875 84 62.2138671875 278.5 c 128,-1,9
 62.2138671875 473 62.2138671875 473 62.2138671875 501 c 0,10,11
 59.2138671875 520 59.2138671875 520 77.2138671875 535.5 c 128,-1,12
 95.2138671875 551 95.2138671875 551 120.213867188 550 c 0,13,14
 145.213867188 551 145.213867188 551 163.213867188 535.5 c 128,-1,15
 181.213867188 520 181.213867188 520 178.213867188 502 c 0,16,17
 179.213867188 490 179.213867188 490 178.213867188 464 c 128,-1,18
 177.213867188 438 177.213867188 438 177.213867188 427 c 0,19,20
 179.213867188 94 179.213867188 94 179.213867188 37 c 0,21,22
 177.213867188 24 177.213867188 24 165.213867188 13.5 c 128,-1,23
 153.213867188 3 153.213867188 3 136.213867188 0 c 0,0,1
EndSplineSet
EndChar

StartChar: j
Encoding: 106 106 44
Width: 478
GlyphClass: 1
Flags: W
LayerCount: 2
Fore
SplineSet
423.040039062 483.486328125 m 6,0,-1
 323.118164062 483.486328125 l 5,1,2
 323.866210938 294.576171875 323.866210938 294.576171875 322.893554688 202.162109375 c 4,3,4
 322.615234375 194.961914062 322.615234375 194.961914062 322.427734375 171.385742188 c 132,-1,5
 322.239257812 147.809570312 322.239257812 147.809570312 321.15234375 136.979492188 c 132,-1,6
 320.064453125 126.150390625 320.064453125 126.150390625 316.806640625 107.78125 c 132,-1,7
 313.549804688 89.4111328125 313.549804688 89.4111328125 305.866210938 75.203125 c 132,-1,8
 298.18359375 60.994140625 298.18359375 60.994140625 286.0703125 48.0810546875 c 4,9,10
 269.295898438 24.3603515625 269.295898438 24.3603515625 243.271484375 11 c 132,-1,11
 217.247070312 -2.361328125 217.247070312 -2.361328125 189.3046875 -0.0751953125 c 4,12,13
 149.504882812 -0.8291015625 149.504882812 -0.8291015625 130.8828125 6.7275390625 c 4,14,15
 88.0185546875 21.1025390625 88.0185546875 21.1025390625 63.0849609375 62.0830078125 c 132,-1,16
 38.1513671875 103.063476562 38.1513671875 103.063476562 38.873046875 150.044921875 c 4,17,18
 41.1474609375 178.212890625 41.1474609375 178.212890625 59.5673828125 188.6328125 c 132,-1,19
 77.9873046875 199.052734375 77.9873046875 199.052734375 95.7392578125 186.53125 c 132,-1,20
 113.491210938 174.010742188 113.491210938 174.010742188 114.12109375 145.725585938 c 4,21,22
 113.909179688 121.607421875 113.909179688 121.607421875 127.434570312 101.178710938 c 132,-1,23
 140.959960938 80.7509765625 140.959960938 80.7509765625 163.522460938 75.2978515625 c 4,24,25
 189.169921875 68.0009765625 189.169921875 68.0009765625 215.079101562 84.724609375 c 132,-1,26
 240.98828125 101.448242188 240.98828125 101.448242188 245.28515625 127.266601562 c 5,27,-1
 245.28515625 276.791015625 l 5,28,-1
 133.794921875 276.680664062 l 5,29,30
 114.862304688 291.60546875 114.862304688 291.60546875 114.862304688 313.05859375 c 132,-1,31
 114.862304688 334.51171875 114.862304688 334.51171875 133.794921875 349.354492188 c 4,32,33
 133.794921875 349.354492188 133.794921875 349.354492188 244.233398438 349.354492188 c 5,34,-1
 244.233398438 483.486328125 l 5,35,-1
 144.3125 483.486328125 l 6,36,37
 133.828125 483.486328125 133.828125 483.486328125 129.510742188 500.017578125 c 132,-1,38
 125.193359375 516.548828125 125.193359375 516.548828125 129.510742188 533.080078125 c 132,-1,39
 133.828125 549.611328125 133.828125 549.611328125 144.3125 549.611328125 c 6,40,-1
 423.040039062 549.611328125 l 6,41,42
 432.998046875 549.611328125 432.998046875 549.611328125 437.09765625 533.080078125 c 132,-1,43
 441.198242188 516.548828125 441.198242188 516.548828125 437.09765625 500.017578125 c 132,-1,44
 432.998046875 483.486328125 432.998046875 483.486328125 423.040039062 483.486328125 c 6,0,-1
EndSplineSet
EndChar

StartChar: k
Encoding: 107 107 45
Width: 494
GlyphClass: 1
Flags: W
LayerCount: 2
Fore
SplineSet
47.2626953125 22.2392578125 m 6,0,-1
 46.9892578125 480.076171875 l 6,1,2
 46.98046875 493.708007812 46.98046875 493.708007812 70.064453125 499.3203125 c 132,-1,3
 93.1474609375 504.932617188 93.1474609375 504.932617188 116.251953125 499.3203125 c 132,-1,4
 139.356445312 493.708007812 139.356445312 493.708007812 139.399414062 480.076171875 c 6,5,-1
 139.875976562 329.740234375 l 5,6,-1
 339.883789062 544.622070312 l 6,7,8
 352.934570312 558.643554688 352.934570312 558.643554688 387.82421875 542.028320312 c 4,9,10
 417.5234375 527.885742188 417.5234375 527.885742188 411.958007812 514.12109375 c 4,11,12
 411.345703125 512.607421875 411.345703125 512.607421875 410.181640625 511.221679688 c 6,13,-1
 282.711914062 359.500976562 l 5,14,-1
 445.477539062 51.7861328125 l 6,15,16
 449.079101562 44.9765625 449.079101562 44.9765625 444.22265625 35.662109375 c 132,-1,17
 439.365234375 26.34765625 439.365234375 26.34765625 429.788085938 18.818359375 c 132,-1,18
 420.2109375 11.2890625 420.2109375 11.2890625 408.91796875 5.546875 c 132,-1,19
 397.624023438 -0.1962890625 397.624023438 -0.1962890625 388.352539062 0.138671875 c 132,-1,20
 379.081054688 0.4736328125 379.081054688 0.4736328125 374.8359375 6.88671875 c 6,21,-1
 219.811523438 292.244140625 l 5,22,-1
 139.915039062 227.150390625 l 5,23,-1
 139.6484375 22.2392578125 l 6,24,25
 139.630859375 8.611328125 139.630859375 8.611328125 116.5390625 3 c 132,-1,26
 93.447265625 -2.6103515625 93.447265625 -2.6103515625 70.3583984375 3 c 132,-1,27
 47.2705078125 8.611328125 47.2705078125 8.611328125 47.2626953125 22.2392578125 c 6,0,-1
EndSplineSet
EndChar

StartChar: l
Encoding: 108 108 46
Width: 432
GlyphClass: 1
Flags: W
HStem: 0 101<120.671 417.671>
VStem: 20.6713 100<101 541>
LayerCount: 2
Fore
SplineSet
395.296875 -0.2744140625 m 2,0,-1
 97.861328125 -0.2744140625 l 2,1,2
 69.04296875 -0.2744140625 69.04296875 -0.2744140625 42.4267578125 26.8388671875 c 128,-1,3
 15.8095703125 53.9521484375 15.8095703125 53.9521484375 15.8095703125 83.935546875 c 2,4,-1
 15.8095703125 528.157226562 l 2,5,6
 15.8095703125 538.342773438 15.8095703125 538.342773438 28.630859375 544.133789062 c 128,-1,7
 41.451171875 549.924804688 41.451171875 549.924804688 56.8359375 549.924804688 c 128,-1,8
 72.220703125 549.924804688 72.220703125 549.924804688 85.041015625 544.133789062 c 128,-1,9
 97.861328125 538.342773438 97.861328125 538.342773438 97.861328125 528.157226562 c 2,10,-1
 97.861328125 86 l 1,11,-1
 395.296875 86 l 2,12,13
 408.212890625 86 408.212890625 86 413.53125 64.431640625 c 128,-1,14
 418.849609375 42.8623046875 418.849609375 42.8623046875 413.53125 21.2939453125 c 128,-1,15
 408.212890625 -0.2744140625 408.212890625 -0.2744140625 395.296875 -0.2744140625 c 2,0,-1
EndSplineSet
EndChar

StartChar: m
Encoding: 109 109 47
Width: 528
GlyphClass: 1
Flags: W
LayerCount: 2
Fore
SplineSet
144 136.50390625 m 5,0,-1
 144 22.2724609375 l 6,1,2
 144 11.8984375 144 11.8984375 131.5 6 c 132,-1,3
 119 0.1015625 119 0.1015625 104 0.1015625 c 132,-1,4
 89 0.1015625 89 0.1015625 76.5 6 c 132,-1,5
 64 11.8984375 64 11.8984375 64 22.2724609375 c 6,6,-1
 64 531.920898438 l 6,7,8
 64.236328125 551.001953125 64.236328125 551.001953125 99.0966796875 550.287109375 c 132,-1,9
 133.95703125 549.572265625 133.95703125 549.572265625 144 531.920898438 c 6,10,-1
 264 312.245117188 l 5,11,-1
 264 136.50390625 l 5,12,-1
 144 136.50390625 l 5,0,-1
384 136.50390625 m 5,13,-1
 264 136.50390625 l 5,14,-1
 264 312.245117188 l 5,15,16
 342.415039062 458.83984375 342.415039062 458.83984375 384 531.920898438 c 4,17,18
 394.04296875 549.572265625 394.04296875 549.572265625 428.903320312 550.287109375 c 132,-1,19
 463.763671875 551.001953125 463.763671875 551.001953125 464 531.920898438 c 6,20,-1
 464 22.2724609375 l 6,21,22
 464 8.44140625 464 8.44140625 444 2.74609375 c 132,-1,23
 424 -2.94921875 424 -2.94921875 404 2.74609375 c 132,-1,24
 384 8.44140625 384 8.44140625 384 22.2724609375 c 6,25,-1
 384 136.50390625 l 5,13,-1
144 382.249023438 m 5,26,-1
 144 224.374023438 l 5,27,-1
 234 224.374023438 l 5,28,-1
 144 382.249023438 l 5,26,-1
384 382.249023438 m 5,29,-1
 294 224.374023438 l 5,30,-1
 384 224.374023438 l 5,31,-1
 384 382.249023438 l 5,29,-1
EndSplineSet
EndChar

StartChar: n
Encoding: 110 110 48
Width: 520
GlyphClass: 1
Flags: W
LayerCount: 2
Fore
SplineSet
380 21.767578125 m 6,0,-1
 140 377.650390625 l 5,1,-1
 140 21.767578125 l 6,2,3
 140 11.58203125 140 11.58203125 127.5 5.791015625 c 132,-1,4
 115 0 115 0 100 0 c 132,-1,5
 85 0 85 0 72.5 5.791015625 c 132,-1,6
 60 11.58203125 60 11.58203125 60 21.767578125 c 6,7,-1
 60 507.061523438 l 6,8,9
 60.52734375 527.848632812 60.52734375 527.848632812 94.1181640625 526.567382812 c 132,-1,10
 127.708984375 525.287109375 127.708984375 525.287109375 140 507.061523438 c 6,11,-1
 380 151.1796875 l 5,12,-1
 380 463.924804688 l 5,13,-1
 260 463.924804688 l 6,14,15
 244.920898438 463.924804688 244.920898438 463.924804688 244.920898438 507.0625 c 132,-1,16
 244.920898438 550.19921875 244.920898438 550.19921875 260 550.19921875 c 6,17,-1
 430.87109375 550.19921875 l 6,18,19
 460 550.19921875 460 550.19921875 460 463.924804688 c 6,20,-1
 460 21.767578125 l 6,21,22
 459.47265625 0.9814453125 459.47265625 0.9814453125 425.881835938 2.26171875 c 132,-1,23
 392.291015625 3.5419921875 392.291015625 3.5419921875 380 21.767578125 c 6,0,-1
EndSplineSet
EndChar

StartChar: o
Encoding: 111 111 49
Width: 598
GlyphClass: 1
Flags: W
LayerCount: 2
Fore
SplineSet
336.384765625 546.098632812 m 4,0,1
 398.5078125 533.189453125 398.5078125 533.189453125 444.256835938 484.708007812 c 132,-1,2
 490.005859375 436.225585938 490.005859375 436.225585938 508.658203125 372.881835938 c 4,3,4
 536.010742188 292.258789062 536.010742188 292.258789062 515.88671875 201.532226562 c 132,-1,5
 495.762695312 110.805664062 495.762695312 110.805664062 432.256835938 51.869140625 c 4,6,7
 374.8828125 1.0625 374.8828125 1.0625 313.995117188 0 c 4,8,9
 290.341796875 1.2333984375 290.341796875 1.2333984375 282.196289062 25.0029296875 c 132,-1,10
 274.051757812 48.7734375 274.051757812 48.7734375 293.834960938 62.474609375 c 4,11,12
 304.53125 71.7197265625 304.53125 71.7197265625 342.305664062 87.1298828125 c 132,-1,13
 380.079101562 102.5390625 380.079101562 102.5390625 391.645507812 122.018554688 c 5,14,15
 242.5390625 122.817382812 242.5390625 122.817382812 196.091796875 122.018554688 c 5,16,17
 193.930664062 97.0849609375 193.930664062 97.0849609375 166.227539062 90.29296875 c 132,-1,18
 138.525390625 83.5 138.525390625 83.5 122.969726562 104.243164062 c 4,19,20
 98.0048828125 136.459960938 98.0048828125 136.459960938 81.67578125 202.145507812 c 4,21,22
 63.564453125 282.869140625 63.564453125 282.869140625 85.9892578125 364.197265625 c 132,-1,23
 108.4140625 445.525390625 108.4140625 445.525390625 168.467773438 499.44140625 c 4,24,25
 203.004882812 529.649414062 203.004882812 529.649414062 247.7890625 542.631835938 c 132,-1,26
 292.573242188 555.614257812 292.573242188 555.614257812 336.384765625 546.098632812 c 4,0,1
432.921875 344.4609375 m 5,27,28
 432.921875 353.033203125 432.921875 353.033203125 429.021484375 367.39453125 c 132,-1,29
 425.12109375 381.756835938 425.12109375 381.756835938 414.99609375 400.793945312 c 132,-1,30
 404.87109375 419.83203125 404.87109375 419.83203125 390.340820312 436.100585938 c 132,-1,31
 375.810546875 452.369140625 375.810546875 452.369140625 351.465820312 463.697265625 c 132,-1,32
 327.120117188 475.025390625 327.120117188 475.025390625 297.865234375 475.025390625 c 132,-1,33
 268.608398438 475.025390625 268.608398438 475.025390625 244.263671875 463.697265625 c 132,-1,34
 219.918945312 452.369140625 219.918945312 452.369140625 205.388671875 436.100585938 c 132,-1,35
 190.858398438 419.83203125 190.858398438 419.83203125 180.733398438 400.793945312 c 132,-1,36
 170.608398438 381.756835938 170.608398438 381.756835938 166.708007812 367.39453125 c 132,-1,37
 162.80859375 353.033203125 162.80859375 353.033203125 162.80859375 344.4609375 c 5,38,39
 162.80859375 344.4609375 162.80859375 344.4609375 432.921875 344.4609375 c 5,27,28
441.92578125 189.71875 m 5,40,41
 458.970703125 225.971679688 458.970703125 225.971679688 450.9296875 286.432617188 c 5,42,43
 450.9296875 286.432617188 450.9296875 286.432617188 153.8046875 286.432617188 c 5,44,45
 144.439453125 226.078125 144.439453125 226.078125 162.80859375 189.71875 c 5,46,47
 162.80859375 189.71875 162.80859375 189.71875 441.92578125 189.71875 c 5,40,41
EndSplineSet
EndChar

StartChar: p
Encoding: 112 112 50
Width: 511
GlyphClass: 1
Flags: W
LayerCount: 2
Fore
SplineSet
378.98046875 509.326171875 m 5,0,1
 429.982421875 476.254882812 429.982421875 476.254882812 447.518554688 423.408203125 c 132,-1,2
 465.053710938 370.5625 465.053710938 370.5625 445.64453125 321.58984375 c 132,-1,3
 426.234375 272.618164062 426.234375 272.618164062 377.549804688 248.462890625 c 4,4,5
 344.818359375 232.227539062 344.818359375 232.227539062 300.8046875 224.91796875 c 132,-1,6
 256.791015625 217.608398438 256.791015625 217.608398438 217.78125 218.291015625 c 132,-1,7
 178.770507812 218.97265625 178.770507812 218.97265625 136.36328125 218.973632812 c 5,8,-1
 136.36328125 21.0166015625 l 6,9,10
 136.36328125 11.1826171875 136.36328125 11.1826171875 123.67578125 5.5908203125 c 132,-1,11
 110.987304688 0 110.987304688 0 95.7607421875 0 c 132,-1,12
 80.53515625 0 80.53515625 0 67.8466796875 5.5908203125 c 132,-1,13
 55.158203125 11.1826171875 55.158203125 11.1826171875 55.158203125 21.0166015625 c 6,14,-1
 55.158203125 507.743164062 l 6,15,16
 58.365234375 524.7890625 58.365234375 524.7890625 74.484375 534.828125 c 132,-1,17
 90.6044921875 544.868164062 90.6044921875 544.868164062 111.74609375 546.2890625 c 4,18,19
 173.942382812 555.412109375 173.942382812 555.412109375 252.383789062 546.583007812 c 132,-1,20
 330.826171875 537.752929688 330.826171875 537.752929688 378.98046875 509.326171875 c 5,0,1
372.651367188 413.678710938 m 4,21,22
 353.619140625 450.912109375 353.619140625 450.912109375 306.1484375 465.43359375 c 4,23,24
 244.07421875 484.559570312 244.07421875 484.559570312 136.36328125 479.123046875 c 5,25,26
 136.36328125 479.123046875 136.36328125 479.123046875 136.36328125 427.09375 c 5,27,-1
 248.01953125 427.09375 l 6,28,29
 260.744140625 427.09375 260.744140625 427.09375 265.983398438 406.383789062 c 132,-1,30
 271.221679688 385.674804688 271.221679688 385.674804688 265.983398438 364.947265625 c 132,-1,31
 260.744140625 344.219726562 260.744140625 344.219726562 248.01953125 344.176757812 c 6,32,33
 248.01953125 344.176757812 248.01953125 344.176757812 136.36328125 343.795898438 c 5,34,-1
 136.36328125 286.002929688 l 5,35,36
 228.638671875 281.00390625 228.638671875 281.00390625 269.641601562 287.525390625 c 4,37,38
 341.557617188 298.171875 341.557617188 298.171875 373.290039062 342.952148438 c 5,39,40
 391.251953125 376.379882812 391.251953125 376.379882812 372.651367188 413.678710938 c 4,21,22
EndSplineSet
EndChar

StartChar: q
Encoding: 113 113 51
Width: 599
GlyphClass: 1
Flags: W
LayerCount: 2
Fore
SplineSet
299.827148438 456.310546875 m 4,0,1
 352.963867188 456.506835938 352.963867188 456.506835938 397.98046875 425.786132812 c 132,-1,2
 442.99609375 395.065429688 442.99609375 395.065429688 467.711914062 349.213867188 c 4,3,4
 507.8515625 278.4609375 507.8515625 278.4609375 497.452148438 192.353515625 c 132,-1,5
 487.052734375 106.24609375 487.052734375 106.24609375 426.53125 47.470703125 c 4,6,7
 416.828125 39.6591796875 416.828125 39.6591796875 399.619140625 29.2275390625 c 132,-1,8
 382.409179688 18.7958984375 382.409179688 18.7958984375 366.5390625 6.7353515625 c 5,9,10
 369.87890625 -1.6376953125 369.87890625 -1.6376953125 382.768554688 -16.7607421875 c 132,-1,11
 395.659179688 -31.8828125 395.659179688 -31.8828125 403.328125 -46.0361328125 c 132,-1,12
 410.997070312 -60.189453125 410.997070312 -60.189453125 406.654296875 -72.9775390625 c 4,13,14
 396.70703125 -96.8623046875 396.70703125 -96.8623046875 370.438476562 -93.267578125 c 132,-1,15
 344.169921875 -89.6728515625 344.169921875 -89.6728515625 332.959960938 -68.5478515625 c 4,16,17
 325.973632812 -60.580078125 325.973632812 -60.580078125 312.500976562 -38.138671875 c 132,-1,18
 299.028320312 -15.697265625 299.028320312 -15.697265625 287.98828125 -6 c 4,19,20
 278.038085938 -0.4296875 278.038085938 -0.4296875 254.920898438 6.21875 c 132,-1,21
 231.8046875 12.8681640625 231.8046875 12.8681640625 221.306640625 19.111328125 c 4,22,23
 176.64453125 41.1474609375 176.64453125 41.1474609375 147.442382812 81.2119140625 c 132,-1,24
 118.240234375 121.275390625 118.240234375 121.275390625 107.450195312 169.009765625 c 4,25,26
 90.3349609375 236.876953125 90.3349609375 236.876953125 109.643554688 283.536132812 c 5,27,28
 121.607421875 300.041992188 121.607421875 300.041992188 145.581054688 293.181640625 c 132,-1,29
 169.5546875 286.3203125 169.5546875 286.3203125 169.798828125 266.766601562 c 4,30,31
 170.15625 259.311523438 170.15625 259.311523438 167.854492188 233.96484375 c 132,-1,32
 165.552734375 208.618164062 165.552734375 208.618164062 168.813476562 201.15625 c 4,33,34
 173.651367188 159.625976562 173.651367188 159.625976562 193.727539062 124.809570312 c 132,-1,35
 213.802734375 89.9921875 213.802734375 89.9921875 250.38671875 72.37109375 c 4,36,37
 257.112304688 66.56640625 257.112304688 66.56640625 263.885742188 66.6552734375 c 132,-1,38
 270.658203125 66.7451171875 270.658203125 66.7451171875 272.135742188 71.708984375 c 132,-1,39
 273.61328125 76.671875 273.61328125 76.671875 268.751953125 84.5947265625 c 4,40,41
 261.787109375 103.400390625 261.787109375 103.400390625 271.905273438 121.965820312 c 132,-1,42
 282.0234375 140.530273438 282.0234375 140.530273438 304.645507812 138.604492188 c 4,43,44
 335.618164062 137.4921875 335.618164062 137.4921875 341.405273438 88.314453125 c 4,45,46
 343.067382812 61.0634765625 343.067382812 61.0634765625 371.116210938 84.21875 c 4,47,48
 377.850585938 89.77734375 377.850585938 89.77734375 382.206054688 95.412109375 c 4,49,50
 421.028320312 136.458984375 421.028320312 136.458984375 429.666015625 194.879882812 c 132,-1,51
 438.303710938 253.301757812 438.303710938 253.301757812 417.391601562 303.1875 c 4,52,53
 403.91796875 339.352539062 403.91796875 339.352539062 372.235351562 364.879882812 c 132,-1,54
 340.551757812 390.407226562 340.551757812 390.407226562 300.684570312 389.65234375 c 4,55,56
 289.543945312 390.852539062 289.543945312 390.852539062 268.739257812 384.639648438 c 132,-1,57
 247.934570312 378.427734375 247.934570312 378.427734375 236.974609375 379.887695312 c 4,58,59
 219.65625 383.779296875 219.65625 383.779296875 213.174804688 397.846679688 c 132,-1,60
 206.693359375 411.915039062 206.693359375 411.915039062 213.576171875 426.103515625 c 132,-1,61
 220.458007812 440.291992188 220.458007812 440.291992188 237.274414062 444.58203125 c 4,62,63
 267.272460938 455.440429688 267.272460938 455.440429688 299.827148438 456.310546875 c 4,0,1
EndSplineSet
EndChar

StartChar: r
Encoding: 114 114 52
Width: 492
GlyphClass: 1
Flags: W
LayerCount: 2
Fore
SplineSet
443.920898438 22.216796875 m 2,0,1
 453.061523438 6.421875 453.061523438 6.421875 424.536132812 2.3935546875 c 0,2,3
 386.946289062 -2.9150390625 386.946289062 -2.9150390625 362.440429688 14.0791015625 c 0,4,5
 357.083984375 17.79296875 357.083984375 17.79296875 354.357421875 22.216796875 c 2,6,-1
 220.73046875 239.025390625 l 1,7,-1
 125.47265625 239.025390625 l 1,8,-1
 125.47265625 22.216796875 l 2,9,10
 125.47265625 11.822265625 125.47265625 11.822265625 113.033203125 5.9111328125 c 128,-1,11
 100.59375 0 100.59375 0 85.6669921875 0 c 128,-1,12
 70.7392578125 0 70.7392578125 0 58.2998046875 5.9111328125 c 128,-1,13
 45.8603515625 11.822265625 45.8603515625 11.822265625 45.8603515625 22.216796875 c 2,14,-1
 45.8603515625 407.436523438 l 2,15,16
 45.8603515625 417.831054688 45.8603515625 417.831054688 58.2998046875 423.7421875 c 128,-1,17
 70.7392578125 429.653320312 70.7392578125 429.653320312 85.6669921875 429.653320312 c 128,-1,18
 100.59375 429.653320312 100.59375 429.653320312 113.033203125 423.7421875 c 128,-1,19
 125.47265625 417.831054688 125.47265625 417.831054688 125.47265625 407.436523438 c 2,20,-1
 125.47265625 320.802734375 l 1,21,22
 226.055664062 305.922851562 226.055664062 305.922851562 299.194335938 332.974609375 c 0,23,24
 322.344726562 343.038085938 322.344726562 343.038085938 334.935546875 364.423828125 c 128,-1,25
 347.52734375 385.80859375 347.52734375 385.80859375 342.374023438 408.620117188 c 0,26,27
 337.1640625 436.435546875 337.1640625 436.435546875 308.084960938 452.87890625 c 128,-1,28
 279.004882812 469.323242188 279.004882812 469.323242188 244.890625 472.061523438 c 0,29,30
 221.379882812 472.729492188 221.379882812 472.729492188 211.71875 492.302734375 c 128,-1,31
 202.05859375 511.875976562 202.05859375 511.875976562 211.71875 531.114257812 c 128,-1,32
 221.379882812 550.352539062 221.379882812 550.352539062 244.890625 550.203125 c 0,33,34
 388.784179688 532.310546875 388.784179688 532.310546875 410.336914062 469.737304688 c 0,35,36
 427.342773438 426.327148438 427.342773438 426.327148438 419.276367188 376.572265625 c 128,-1,37
 411.209960938 326.817382812 411.209960938 326.817382812 376.420898438 292.143554688 c 0,38,39
 343.681640625 259.51171875 343.681640625 259.51171875 309.659179688 254.227539062 c 1,40,-1
 443.920898438 22.216796875 l 2,0,1
  Spiro
    443.921 22.2168 ]
    443.645 9.36353 o
    424.536 2.39355 o
    390.218 2.66064 o
    362.441 14.0791 o
    357.742 17.9705 o
    354.358 22.2168 [
    220.731 239.025 v
    125.473 239.025 v
    125.473 22.2168 ]
    122.363 12.9431 o
    113.033 5.91113 o
    99.9722 1.47778 o
    85.6673 0 o
    71.3616 1.47778 o
    58.3001 5.91113 o
    48.9705 12.9431 o
    45.8606 22.2168 [
    45.8606 407.437 ]
    48.9705 416.71 o
    58.3001 423.742 o
    71.3616 428.176 o
    85.6673 429.653 o
    99.9722 428.176 o
    113.033 423.742 o
    122.363 416.71 o
    125.473 407.437 [
    125.473 320.803 v
    219.195 316.406 o
    299.195 332.975 o
    319.705 345.869 o
    334.936 364.424 o
    343.091 386.165 o
    342.374 408.62 o
    331.197 433.593 o
    308.085 452.879 o
    277.747 465.897 o
    244.891 472.062 o
    224.843 477.456 o
    211.719 492.303 o
    206.889 511.792 o
    211.719 531.114 o
    224.843 545.506 o
    244.891 550.203 o
    358.199 521.14 o
    410.337 469.737 o
    421.075 424.741 o
    419.277 376.572 o
    404.53 330.588 o
    376.421 292.144 o
    343.361 266.349 o
    309.659 254.228 v
    0 0 z
  EndSpiro
EndSplineSet
EndChar

StartChar: s
Encoding: 115 115 53
Width: 498
GlyphClass: 1
Flags: W
LayerCount: 2
Fore
SplineSet
256.662109375 549.470703125 m 4,0,1
 345.231445312 546.392578125 345.231445312 546.392578125 427.07421875 516.020507812 c 4,2,3
 447.846679688 506.396484375 447.846679688 506.396484375 444.208007812 483.243164062 c 132,-1,4
 440.569335938 460.08984375 440.569335938 460.08984375 417.362304688 456.263671875 c 4,5,6
 402.5390625 455.005859375 402.5390625 455.005859375 376.780273438 462.5546875 c 132,-1,7
 351.021484375 470.104492188 351.021484375 470.104492188 341.465820312 471.104492188 c 4,8,9
 251.2734375 488.607421875 251.2734375 488.607421875 200.6171875 472.275390625 c 4,10,11
 173.647460938 462.443359375 173.647460938 462.443359375 158.293945312 439.165039062 c 132,-1,12
 142.940429688 415.88671875 142.940429688 415.88671875 148.131835938 390.723632812 c 4,13,14
 154.604492188 350.869140625 154.604492188 350.869140625 224.370117188 321.185546875 c 4,15,16
 241.344726562 313.983398438 241.344726562 313.983398438 282.598632812 300.096679688 c 132,-1,17
 323.853515625 286.209960938 323.853515625 286.209960938 352.368164062 272.4765625 c 132,-1,18
 380.8828125 258.743164062 380.8828125 258.743164062 402.326171875 238.853515625 c 4,19,20
 426.983398438 216.639648438 426.983398438 216.639648438 439.745117188 187.993164062 c 132,-1,21
 452.5078125 159.346679688 452.5078125 159.346679688 447.791992188 130.43359375 c 5,22,23
 439.53515625 110.703125 439.53515625 110.703125 413.522460938 105.88671875 c 132,-1,24
 387.508789062 101.069335938 387.508789062 101.069335938 371.76953125 117.083984375 c 5,25,26
 367.224609375 136.108398438 367.224609375 136.108398438 363.494140625 147.73046875 c 132,-1,27
 359.763671875 159.352539062 359.763671875 159.352539062 350.755859375 174.350585938 c 132,-1,28
 341.748046875 189.348632812 341.748046875 189.348632812 329.025390625 198.92578125 c 4,29,30
 303.801757812 218.12109375 303.801757812 218.12109375 247.30859375 237.212890625 c 132,-1,31
 190.815429688 256.305664062 190.815429688 256.305664062 176.904296875 262.87890625 c 4,32,33
 86.818359375 303.702148438 86.818359375 303.702148438 65.494140625 362.580078125 c 4,34,35
 50.1689453125 406.837890625 50.1689453125 406.837890625 70.927734375 452.512695312 c 132,-1,36
 91.6865234375 498.186523438 91.6865234375 498.186523438 137.010742188 521.512695312 c 4,37,38
 184.99609375 548.712890625 184.99609375 548.712890625 256.662109375 549.470703125 c 4,0,1
79.830078125 93.6123046875 m 4,39,40
 86.9697265625 94.337890625 86.9697265625 94.337890625 98.662109375 89.7734375 c 132,-1,41
 110.354492188 85.208984375 110.354492188 85.208984375 115.189453125 84.6455078125 c 4,42,43
 186.323242188 70.244140625 186.323242188 70.244140625 235.797851562 66.5986328125 c 4,44,45
 267.220703125 63.7158203125 267.220703125 63.7158203125 275.96875 46.326171875 c 4,46,47
 282.193359375 35.353515625 282.193359375 35.353515625 277.537109375 22.447265625 c 132,-1,48
 272.879882812 9.541015625 272.879882812 9.541015625 260.125976562 4.46484375 c 4,49,50
 250.981445312 -1.234375 250.981445312 -1.234375 225.237304688 0 c 4,51,52
 154.52734375 3.3076171875 154.52734375 3.3076171875 69.3251953125 31.638671875 c 4,53,54
 58.1181640625 37.0244140625 58.1181640625 37.0244140625 52.4814453125 47.705078125 c 132,-1,55
 46.8447265625 58.384765625 46.8447265625 58.384765625 50.1669921875 69.1357421875 c 4,56,57
 52.2509765625 78.4609375 52.2509765625 78.4609375 60.666015625 85.265625 c 132,-1,58
 69.08203125 92.0703125 69.08203125 92.0703125 79.830078125 93.6123046875 c 4,39,40
EndSplineSet
EndChar

StartChar: t
Encoding: 116 116 54
Width: 483
GlyphClass: 1
Flags: W
HStem: 510 69<54.4512 213.451 280.451 446.451>
VStem: 212.451 68<2 510>
LayerCount: 2
Fore
SplineSet
423.383789062 551.9921875 m 2,0,1
 435.05859375 552.034179688 435.05859375 552.034179688 439.444335938 533.575195312 c 0,2,3
 444.06640625 515 444.06640625 515 439.444335938 496.643554688 c 0,4,5
 435.10546875 478.168945312 435.10546875 478.168945312 423.383789062 478.168945312 c 2,6,-1
 278.755859375 478.168945312 l 1,7,-1
 278.755859375 20.0625 l 2,8,9
 279.06640625 8 279.06640625 8 261.06640625 3 c 132,-1,10
 243.06640625 -2 243.06640625 -2 225.686523438 3 c 4,11,12
 207.99609375 8.01953125 207.99609375 8.01953125 207.99609375 20.0625 c 2,13,-1
 207.99609375 478.168945312 l 1,14,-1
 59.201171875 478.168945312 l 2,15,16
 48.06640625 478 48.06640625 478 43.423828125 496.282226562 c 0,17,18
 39.06640625 514 39.06640625 514 43.423828125 532.525390625 c 0,19,20
 47.9794921875 550.654296875 47.9794921875 550.654296875 59.201171875 550.694335938 c 2,21,-1
 423.383789062 551.9921875 l 2,0,1
EndSplineSet
EndChar

StartChar: u
Encoding: 117 117 55
Width: 521
GlyphClass: 1
Flags: W
LayerCount: 2
Fore
SplineSet
266.833984375 0 m 4,0,1
 214.229492188 -2.4443359375 214.229492188 -2.4443359375 166.819335938 24.9638671875 c 132,-1,2
 119.41015625 52.373046875 119.41015625 52.373046875 93.28515625 97.4541015625 c 4,3,4
 77.2490234375 123.528320312 77.2490234375 123.528320312 69.5419921875 159.388671875 c 132,-1,5
 61.8349609375 195.25 61.8349609375 195.25 61.09375 216.970703125 c 132,-1,6
 60.3525390625 238.69140625 60.3525390625 238.69140625 60.60546875 283.3828125 c 6,7,-1
 60.5087890625 527.390625 l 6,8,9
 60.50390625 541.509765625 60.50390625 541.509765625 80.609375 547.323242188 c 132,-1,10
 100.71484375 553.137695312 100.71484375 553.137695312 120.827148438 547.323242188 c 132,-1,11
 140.938476562 541.509765625 140.938476562 541.509765625 140.94921875 527.390625 c 6,12,-1
 141.1171875 302.106445312 l 5,13,-1
 381.606445312 302.61328125 l 5,14,-1
 382.407226562 527.390625 l 6,15,16
 382.456054688 541.09375 382.456054688 541.09375 402.05078125 546.73828125 c 132,-1,17
 421.64453125 552.3828125 421.64453125 552.3828125 441.150390625 546.73828125 c 132,-1,18
 460.655273438 541.092773438 460.655273438 541.092773438 460.489257812 527.390625 c 6,19,-1
 459.578125 189.586914062 l 6,20,21
 455.391601562 103.37890625 455.391601562 103.37890625 395.0546875 51.1357421875 c 4,22,23
 341.901367188 3.30078125 341.901367188 3.30078125 266.833984375 0 c 4,0,1
381.874023438 231.141601562 m 5,24,25
 262.163085938 231.142578125 262.163085938 231.142578125 142.451171875 231.142578125 c 5,26,27
 143.240234375 208.803710938 143.240234375 208.803710938 147.311523438 186.818359375 c 4,28,29
 158.134765625 125.270507812 158.134765625 125.270507812 192.96484375 95.66015625 c 4,30,31
 218.329101562 72.9892578125 218.329101562 72.9892578125 265.068359375 72.751953125 c 4,32,33
 310.9140625 71.85546875 310.9140625 71.85546875 343.162109375 110.51953125 c 4,34,35
 383.494140625 159.52734375 383.494140625 159.52734375 381.874023438 231.141601562 c 5,24,25
EndSplineSet
EndChar

StartChar: v
Encoding: 118 118 56
Width: 490
GlyphClass: 1
Flags: W
LayerCount: 2
Fore
SplineSet
444.0546875 502.760742188 m 6,0,-1
 291.711914062 22.353515625 l 6,1,2
 284.606445312 -0.0244140625 284.606445312 -0.0244140625 246.913085938 0 c 132,-1,3
 209.219726562 0.0244140625 209.219726562 0.0244140625 201.892578125 22.353515625 c 6,4,-1
 46.283203125 496.59375 l 6,5,6
 41.37109375 511.561523438 41.37109375 511.561523438 53.0029296875 530.137695312 c 132,-1,7
 64.634765625 548.712890625 64.634765625 548.712890625 79.462890625 548.853515625 c 6,8,-1
 200.6953125 550 l 5,9,-1
 404.857421875 549.958984375 l 6,10,11
 420.211914062 549.956054688 420.211914062 549.956054688 434.428710938 533.596679688 c 132,-1,12
 448.645507812 517.237304688 448.645507812 517.237304688 444.0546875 502.760742188 c 6,0,-1
361.774414062 474.4609375 m 5,13,14
 360.0078125 474.442382812 360.0078125 474.442382812 351.374023438 474.455078125 c 132,-1,15
 342.740234375 474.467773438 342.740234375 474.467773438 340.974609375 474.4609375 c 4,16,17
 321.967773438 474.743164062 321.967773438 474.743164062 283.265625 474.4453125 c 132,-1,18
 244.563476562 474.146484375 244.563476562 474.146484375 225.581054688 474.4609375 c 4,19,20
 188.879882812 474.07421875 188.879882812 474.07421875 175.471679688 474.4609375 c 4,21,22
 172.884765625 474.672851562 172.884765625 474.672851562 150.071289062 474.565429688 c 132,-1,23
 127.2578125 474.458007812 127.2578125 474.458007812 124.515625 474.4609375 c 5,24,25
 137.407226562 435.022460938 137.407226562 435.022460938 150.28515625 395.580078125 c 4,26,27
 155.53125 379.342773438 155.53125 379.342773438 189.65625 274.9921875 c 132,-1,28
 223.780273438 170.642578125 223.780273438 170.642578125 241.091796875 115.302734375 c 4,29,30
 243.977539062 98.6669921875 243.977539062 98.6669921875 248.571289062 117.462890625 c 4,31,32
 282.874023438 222.619140625 282.874023438 222.619140625 361.774414062 474.4609375 c 5,13,14
EndSplineSet
EndChar

StartChar: w
Encoding: 119 119 57
Width: 500
GlyphClass: 1
Flags: W
LayerCount: 2
Fore
SplineSet
384.951171875 13.9921875 m 6,0,1
 383.088867188 -0.2587890625 383.088867188 -0.2587890625 356.76171875 0.02734375 c 132,-1,2
 330.43359375 0.3125 330.43359375 0.3125 324.970703125 13.9921875 c 6,3,-1
 247.147460938 217.38671875 l 5,4,-1
 170.0234375 13.9921875 l 6,5,6
 164.81640625 0.26171875 164.81640625 0.26171875 138.826171875 0 c 132,-1,7
 112.8359375 -0.2607421875 112.8359375 -0.2607421875 111.09375 13.9921875 c 6,8,-1
 50.0634765625 535.33984375 l 6,9,10
 48.9833984375 544.569335938 48.9833984375 544.569335938 63.52734375 548.368164062 c 132,-1,11
 78.072265625 552.16796875 78.072265625 552.16796875 93.51171875 548.368164062 c 132,-1,12
 108.951171875 544.567382812 108.951171875 544.567382812 110.043945312 535.33984375 c 6,13,-1
 154.836914062 161.54296875 l 5,14,-1
 204.311523438 289.420898438 l 6,15,16
 211.701171875 308.49609375 211.701171875 308.49609375 247.0625 308.4765625 c 132,-1,17
 282.423828125 308.456054688 282.423828125 308.456054688 289.983398438 289.420898438 c 6,18,-1
 340.758789062 161.54296875 l 5,19,-1
 389.94921875 535.33984375 l 6,20,21
 391.161132812 544.5546875 391.161132812 544.5546875 406.622070312 548.3515625 c 132,-1,22
 422.08203125 552.1484375 422.08203125 552.1484375 436.575195312 548.35546875 c 132,-1,23
 451.067382812 544.563476562 451.067382812 544.563476562 449.928710938 535.33984375 c 6,24,-1
 384.951171875 13.9921875 l 6,0,1
EndSplineSet
EndChar

StartChar: x
Encoding: 120 120 58
Width: 1000
GlyphClass: 1
Flags: W
LayerCount: 2
Fore
SplineSet
377.559570312 550.099609375 m 0,0,1
 402.681640625 550.7109375 402.681640625 550.7109375 421.329101562 538.385742188 c 128,-1,2
 439.9765625 526.060546875 439.9765625 526.060546875 435.8671875 506.5234375 c 0,3,4
 434.087890625 495.680664062 434.087890625 495.680664062 426.424804688 488.796875 c 128,-1,5
 418.76171875 481.913085938 418.76171875 481.913085938 406.1796875 474.673828125 c 128,-1,6
 393.596679688 467.434570312 393.596679688 467.434570312 386.471679688 460.25 c 1,7,8
 387.001953125 447.67578125 387.001953125 447.67578125 405.875 430.052734375 c 128,-1,9
 424.747070312 412.4296875 424.747070312 412.4296875 456.087890625 389.268554688 c 128,-1,10
 487.4296875 366.107421875 487.4296875 366.107421875 499.998046875 354.443359375 c 1,11,12
 499.998046875 341.223632812 499.998046875 341.223632812 499.999023438 314.784179688 c 128,-1,13
 499.999023438 288.345703125 499.999023438 288.345703125 500 275.125976562 c 1,14,-1
 451.99609375 275.124023438 l 1,15,-1
 500 275.122070312 l 1,16,17
 499.999023438 261.90234375 499.999023438 261.90234375 499.999023438 235.462890625 c 128,-1,18
 499.998046875 209.0234375 499.998046875 209.0234375 499.998046875 195.8046875 c 1,19,20
 487.4296875 184.140625 487.4296875 184.140625 456.087890625 160.979492188 c 128,-1,21
 424.747070312 137.818359375 424.747070312 137.818359375 405.875 120.1953125 c 128,-1,22
 387.001953125 102.572265625 387.001953125 102.572265625 386.471679688 89.998046875 c 1,23,24
 391.107421875 85.3232421875 391.107421875 85.3232421875 412.310546875 71.6962890625 c 128,-1,25
 433.513671875 58.0693359375 433.513671875 58.0693359375 435.8671875 43.724609375 c 0,26,27
 440.959960938 19.513671875 440.959960938 19.513671875 412.66796875 7 c 128,-1,28
 384.375976562 -5.513671875 384.375976562 -5.513671875 356.888671875 3.5615234375 c 0,29,30
 353.255859375 5.646484375 353.255859375 5.646484375 336.33203125 14.388671875 c 128,-1,31
 319.407226562 23.130859375 319.407226562 23.130859375 312.053710938 28.3447265625 c 128,-1,32
 304.69921875 33.55859375 304.69921875 33.55859375 293.442382812 43.5244140625 c 128,-1,33
 282.184570312 53.490234375 282.184570312 53.490234375 278.060546875 65.765625 c 128,-1,34
 273.935546875 78.0419921875 273.935546875 78.0419921875 275.295898438 93.1650390625 c 0,35,36
 276.520507812 107.084960938 276.520507812 107.084960938 301.060546875 136.38671875 c 128,-1,37
 325.599609375 165.688476562 325.599609375 165.688476562 372.021484375 212.991210938 c 128,-1,38
 418.443359375 260.293945312 418.443359375 260.293945312 431.908203125 275.124023438 c 1,39,40
 418.439453125 289.958007812 418.439453125 289.958007812 372.020507812 337.2578125 c 128,-1,41
 325.600585938 384.557617188 325.600585938 384.557617188 301.060546875 413.859375 c 128,-1,42
 276.520507812 443.162109375 276.520507812 443.162109375 275.295898438 457.08203125 c 0,43,44
 273.935546875 472.205078125 273.935546875 472.205078125 278.059570312 484.48046875 c 128,-1,45
 282.184570312 496.756835938 282.184570312 496.756835938 293.442382812 506.72265625 c 128,-1,46
 304.700195312 516.688476562 304.700195312 516.688476562 312.053710938 521.90234375 c 128,-1,47
 319.407226562 527.116210938 319.407226562 527.116210938 336.33203125 535.858398438 c 128,-1,48
 353.256835938 544.6015625 353.256835938 544.6015625 356.888671875 546.686523438 c 0,49,50
 366.403320312 549.827148438 366.403320312 549.827148438 377.559570312 550.099609375 c 0,0,1
622.440429688 550.099609375 m 0,51,52
 633.596679688 549.827148438 633.596679688 549.827148438 643.111328125 546.686523438 c 0,53,54
 646.743164062 544.6015625 646.743164062 544.6015625 663.66796875 535.858398438 c 128,-1,55
 680.592773438 527.116210938 680.592773438 527.116210938 687.946289062 521.90234375 c 128,-1,56
 695.299804688 516.688476562 695.299804688 516.688476562 706.557617188 506.72265625 c 128,-1,57
 717.815429688 496.756835938 717.815429688 496.756835938 721.939453125 484.48046875 c 128,-1,58
 726.064453125 472.205078125 726.064453125 472.205078125 724.704101562 457.08203125 c 0,59,60
 723.478515625 443.162109375 723.478515625 443.162109375 698.938476562 413.859375 c 128,-1,61
 674.3984375 384.557617188 674.3984375 384.557617188 627.979492188 337.2578125 c 128,-1,62
 581.559570312 289.958007812 581.559570312 289.958007812 568.091796875 275.124023438 c 1,63,64
 581.556640625 260.293945312 581.556640625 260.293945312 627.978515625 212.991210938 c 128,-1,65
 674.400390625 165.688476562 674.400390625 165.688476562 698.939453125 136.38671875 c 128,-1,66
 723.478515625 107.084960938 723.478515625 107.084960938 724.704101562 93.1650390625 c 0,67,68
 726.064453125 78.0419921875 726.064453125 78.0419921875 721.939453125 65.765625 c 128,-1,69
 717.815429688 53.490234375 717.815429688 53.490234375 706.557617188 43.5244140625 c 128,-1,70
 695.299804688 33.55859375 695.299804688 33.55859375 687.946289062 28.3447265625 c 128,-1,71
 680.591796875 23.130859375 680.591796875 23.130859375 663.66796875 14.388671875 c 128,-1,72
 646.744140625 5.646484375 646.744140625 5.646484375 643.111328125 3.5615234375 c 0,73,74
 615.624023438 -5.513671875 615.624023438 -5.513671875 587.33203125 7 c 128,-1,75
 559.040039062 19.513671875 559.040039062 19.513671875 564.1328125 43.724609375 c 0,76,77
 565.911132812 54.56640625 565.911132812 54.56640625 573.575195312 61.4501953125 c 128,-1,78
 581.23828125 68.333984375 581.23828125 68.333984375 593.8203125 75.5732421875 c 128,-1,79
 606.403320312 82.8134765625 606.403320312 82.8134765625 613.528320312 89.998046875 c 1,80,81
 612.998046875 102.572265625 612.998046875 102.572265625 594.125 120.1953125 c 128,-1,82
 575.251953125 137.818359375 575.251953125 137.818359375 543.911132812 160.979492188 c 128,-1,83
 512.5703125 184.140625 512.5703125 184.140625 500.001953125 195.8046875 c 1,84,85
 500.000976562 209.0234375 500.000976562 209.0234375 500.000976562 235.462890625 c 128,-1,86
 500 261.90234375 500 261.90234375 500 275.122070312 c 1,87,-1
 548.00390625 275.124023438 l 1,88,-1
 500 275.125976562 l 1,89,90
 500 288.345703125 500 288.345703125 500.000976562 314.784179688 c 128,-1,91
 500.000976562 341.223632812 500.000976562 341.223632812 500.001953125 354.443359375 c 1,92,93
 512.5703125 366.107421875 512.5703125 366.107421875 543.911132812 389.268554688 c 128,-1,94
 575.251953125 412.4296875 575.251953125 412.4296875 594.125 430.052734375 c 128,-1,95
 612.998046875 447.67578125 612.998046875 447.67578125 613.528320312 460.25 c 1,96,97
 608.891601562 464.924804688 608.891601562 464.924804688 587.689453125 478.551757812 c 128,-1,98
 566.486328125 492.178710938 566.486328125 492.178710938 564.1328125 506.5234375 c 0,99,100
 560.022460938 526.060546875 560.022460938 526.060546875 578.670898438 538.385742188 c 128,-1,101
 597.318359375 550.7109375 597.318359375 550.7109375 622.440429688 550.099609375 c 0,51,52
EndSplineSet
EndChar

StartChar: y
Encoding: 121 121 59
Width: 489
GlyphClass: 1
Flags: W
LayerCount: 2
Fore
SplineSet
400.80859375 546.947265625 m 6,0,1
 409.423828125 560.287109375 409.423828125 560.287109375 429.825195312 536.192382812 c 4,2,3
 450.794921875 511.428710938 450.794921875 511.428710938 442.440429688 497.403320312 c 6,4,-1
 281.702148438 227.560546875 l 5,5,-1
 281.702148438 20.1083984375 l 6,6,7
 281.702148438 7.9892578125 281.702148438 7.9892578125 261.741210938 3 c 132,-1,8
 241.780273438 -1.990234375 241.780273438 -1.990234375 221.818359375 3 c 132,-1,9
 201.857421875 7.9892578125 201.857421875 7.9892578125 201.857421875 20.1083984375 c 6,10,-1
 201.857421875 227.090820312 l 5,11,-1
 45.859375 494.888671875 l 6,12,13
 40.7900390625 503.591796875 40.7900390625 503.591796875 51.017578125 518.329101562 c 132,-1,14
 61.244140625 533.067382812 61.244140625 533.067382812 73.9814453125 539.122070312 c 132,-1,15
 86.71875 545.176757812 86.71875 545.176757812 93.810546875 538.215820312 c 6,16,-1
 241.779296875 300.723632812 l 5,17,-1
 400.80859375 546.947265625 l 6,0,1
EndSplineSet
EndChar

StartChar: z
Encoding: 122 122 60
Width: 495
GlyphClass: 1
Flags: W
LayerCount: 2
Fore
SplineSet
430.965820312 0.419921875 m 2,0,-1
 101.697265625 0.419921875 l 2,1,2
 82.7265625 0.419921875 82.7265625 0.419921875 67.7626953125 29.587890625 c 128,-1,3
 52.7998046875 58.755859375 52.7998046875 58.755859375 63.8740234375 76.0927734375 c 2,4,-1
 357.2265625 472.965820312 l 1,5,-1
 63.8740234375 473.48828125 l 2,6,7
 53.5302734375 473.506835938 53.5302734375 473.506835938 49.2724609375 492.739257812 c 128,-1,8
 45.013671875 511.971679688 45.013671875 511.971679688 49.2724609375 531.196289062 c 128,-1,9
 53.5302734375 550.419921875 53.5302734375 550.419921875 63.8740234375 550.419921875 c 2,10,-1
 407.176757812 550.404296875 l 2,11,12
 423.3203125 550.40234375 423.3203125 550.40234375 438.529296875 528.213867188 c 128,-1,13
 453.73828125 506.025390625 453.73828125 506.025390625 444.149414062 492.419921875 c 2,14,-1
 149.248046875 74 l 1,15,-1
 430.965820312 73.2158203125 l 2,16,17
 440.752929688 73.1884765625 440.752929688 73.1884765625 444.782226562 54.9912109375 c 128,-1,18
 448.811523438 36.79296875 448.811523438 36.79296875 444.782226562 18.6064453125 c 128,-1,19
 440.752929688 0.419921875 440.752929688 0.419921875 430.965820312 0.419921875 c 2,0,-1
EndSplineSet
EndChar
